<?xml version="1.0" standalone="no"?>
<!DOCTYPE svg PUBLIC "-//W3C//DTD SVG 1.1//EN" "http://www.w3.org/Graphics/SVG/1.1/DTD/svg11.dtd" >
<svg xmlns="http://www.w3.org/2000/svg" xmlns:xlink="http://www.w3.org/1999/xlink" version="1.1">
<metadata>
Created by FontForge 20170910 at Wed Dec 12 20:22:29 2007
 By jimmywarting
Copyright (c) 2000 The Hoefler Type Foundry, Inc., dba Hoefler &#38; Frere-Jones. All Rights Reserved.
</metadata>
<defs>
<font id="GothamPro" horiz-adv-x="500" >
  <font-face 
    font-family="Gotham Pro"
    font-weight="400"
    font-stretch="normal"
    units-per-em="1000"
    panose-1="2 0 5 3 4 0 0 2 0 4"
    ascent="800"
    descent="-200"
    x-height="517"
    cap-height="700"
    bbox="-68 -196 1158 907"
    underline-thickness="20"
    underline-position="-133"
    unicode-range="U+0020-FB04"
  />
<missing-glyph 
d="M0 0v700h500v-700h-500zM81 49h339l-170 255zM49 96l171 254l-171 254v-508zM450 96v508l-171 -254zM250 395l170 255h-339z" />
    <glyph glyph-name="fi" unicode="fi" horiz-adv-x="631" 
d="M115 0v449h-71v67h71v45q0 88 45 133q40 40 111 40q49 0 85 -13v-67q-45 13 -75 13q-90 0 -90 -110v-42h164v-66h-163v-449h-77zM461 0v517h76v-517h-76zM455 630v85h88v-85h-88z" />
    <glyph glyph-name="fl" unicode="fl" horiz-adv-x="631" 
d="M115 0v449h-71v67h71v45q0 88 45 133q40 40 111 40q49 0 85 -13v-67q-45 13 -75 13q-90 0 -90 -110v-42h164v-66h-163v-449h-77zM461 0v730h76v-730h-76z" />
    <glyph glyph-name="ffi" unicode="ffi" horiz-adv-x="998" 
d="M115 0v449h-71v67h71v45q0 88 45 133q40 40 111 40q49 0 85 -13v-67q-45 13 -75 13q-90 0 -90 -110v-42h164v-66h-163v-449h-77zM483 0v449h-71v67h71v45q0 89 44 133q42 40 111 40q50 0 85 -13v-67q-44 13 -74 13q-90 0 -90 -110v-42h163v-66h-163v-449h-76zM828 0v517
h77v-517h-77zM823 630v85h87v-85h-87z" />
    <glyph glyph-name="ffl" unicode="ffl" horiz-adv-x="998" 
d="M115 0v449h-71v67h71v45q0 88 45 133q40 40 111 40q49 0 85 -13v-67q-45 13 -75 13q-90 0 -90 -110v-42h164v-66h-163v-449h-77zM483 0v449h-71v67h71v45q0 89 44 133q42 40 111 40q50 0 85 -13v-67q-44 13 -74 13q-90 0 -90 -110v-42h163v-66h-163v-449h-76zM828 0v730
h77v-730h-77z" />
    <glyph glyph-name=".notdef" 
d="M0 0v700h500v-700h-500zM81 49h339l-170 255zM49 96l171 254l-171 254v-508zM450 96v508l-171 -254zM250 395l170 255h-339z" />
    <glyph glyph-name=".null" horiz-adv-x="0" 
 />
    <glyph glyph-name="nonmarkingreturn" horiz-adv-x="333" 
 />
    <glyph glyph-name="space" unicode=" " horiz-adv-x="300" 
 />
    <glyph glyph-name="exclam" unicode="!" horiz-adv-x="271" 
d="M114 198l-23 445v57h90v-57l-24 -445h-43zM90 0v105h92v-105h-92z" />
    <glyph glyph-name="quotedbl" unicode="&#x22;" horiz-adv-x="440" 
d="M260 428l31 272h92v-5l-81 -267h-42zM65 428l30 272h93v-5l-81 -267h-42z" />
    <glyph glyph-name="numbersign" unicode="#" horiz-adv-x="700" 
d="M124 0l30 177h-109v69h121l37 212h-119v69h130l30 173h70l-29 -173h190l30 173h70l-29 -173h108v-69h-120l-37 -212h118v-69h-129l-31 -177h-70l30 177h-190l-31 -177h-70zM237 246h190l36 212h-190z" />
    <glyph glyph-name="dollar" unicode="$" horiz-adv-x="636" 
d="M292 -98v100q-129 12 -236 103l45 60q94 -84 194 -95v250q-112 27 -162.5 72t-50.5 124q0 77 58.5 128t151.5 56v58h64v-60q100 -9 191 -80l-43 -60q-68 58 -151 72v-246q114 -26 165 -72.5t51 -123.5q0 -80 -59 -131t-154 -57v-98h-64zM295 398v235q-62 -2 -99 -34
t-37 -80q0 -45 29 -73t107 -48zM353 67q63 3 101 35.5t38 82.5q0 46 -29.5 74t-109.5 47v-239z" />
    <glyph glyph-name="percent" unicode="%" horiz-adv-x="834" 
d="M210 350q-69 0 -113.5 52.5t-44.5 126.5q0 73 45 126t115 53q69 0 113 -52.5t44 -126.5q0 -73 -45 -126t-114 -53zM124 0l514 700h71l-513 -700h-72zM622 -8q-69 0 -113 52.5t-44 126.5q0 73 45 126t114 53t113 -52.5t44 -126.5t-44.5 -126.5t-114.5 -52.5zM212 406
q40 0 65.5 35.5t25.5 87.5t-27 87.5t-66 35.5q-40 0 -65.5 -35.5t-25.5 -87.5t27 -87.5t66 -35.5zM624 48q41 0 66 35t25 88q0 52 -27 87.5t-66 35.5q-40 0 -65.5 -35.5t-25.5 -87.5t27 -87.5t66 -35.5z" />
    <glyph glyph-name="ampersand" unicode="&#x26;" horiz-adv-x="696" 
d="M604 -14l-110 113q-101 -109 -229 -109q-96 0 -158 55t-62 143q0 136 169 202q-37 43 -53.5 78.5t-16.5 77.5q0 70 51.5 118t133.5 48q73 0 121.5 -46.5t48.5 -113.5q0 -124 -165 -182l160 -163q45 65 84 156l65 -30q-53 -113 -101 -176l122 -125zM290 415
q135 46 135 135q0 42 -28 69.5t-71 27.5q-47 0 -76.5 -29t-29.5 -74q0 -31 15 -58.5t55 -70.5zM271 57q92 0 175 91l-187 193q-67 -25 -100.5 -64.5t-33.5 -87.5q0 -57 41 -94.5t105 -37.5z" />
    <glyph glyph-name="quotesingle" unicode="'" horiz-adv-x="245" 
d="M65 428l30 272h94v-5l-81 -267h-43z" />
    <glyph glyph-name="parenleft" unicode="(" horiz-adv-x="434" 
d="M345 -141q-277 156 -277 428t277 428l33 -51q-232 -148 -232 -377t232 -377z" />
    <glyph glyph-name="parenright" unicode=")" horiz-adv-x="434" 
d="M89 -141l-33 51q232 148 232 377t-232 377l33 51q277 -156 277 -428t-277 -428z" />
    <glyph glyph-name="asterisk" unicode="*" horiz-adv-x="430" 
d="M189 397l10 125l-103 -73l-27 47l116 53l-116 54l27 46l103 -72l-10 125h52l-10 -125l103 72l27 -46l-116 -54l116 -53l-27 -47l-103 73l10 -125h-52z" />
    <glyph glyph-name="plus" unicode="+" horiz-adv-x="640" 
d="M283 110v206h-208v72h208v206h74v-206h208v-72h-208v-206h-74z" />
    <glyph glyph-name="comma" unicode="," horiz-adv-x="245" 
d="M58 -122l-12 35q67 25 67 77v10h-36v105h92v-90q0 -60 -26.5 -92t-84.5 -45z" />
    <glyph glyph-name="hyphen" unicode="-" horiz-adv-x="408" 
d="M65 260v81h278v-81h-278z" />
    <glyph glyph-name="period" unicode="." horiz-adv-x="245" 
d="M77 0v105h92v-105h-92z" />
    <glyph glyph-name="slash" unicode="/" horiz-adv-x="508" 
d="M-21 -128l464 926h71l-464 -926h-71z" />
    <glyph glyph-name="zero" unicode="0" horiz-adv-x="715" 
d="M357 -12q-132 0 -213.5 104.5t-81.5 257.5q0 151 82.5 256.5t214.5 105.5t213 -104.5t81 -257.5q0 -151 -82 -256.5t-214 -105.5zM359 60q95 0 153.5 84.5t58.5 205.5q0 119 -59.5 204.5t-154.5 85.5t-154 -84.5t-59 -205.5q0 -119 60 -204.5t155 -85.5z" />
    <glyph glyph-name="one" unicode="1" horiz-adv-x="358" 
d="M179 0v623l-132 -41l-19 64l171 59h58v-705h-78z" />
    <glyph glyph-name="two" unicode="2" horiz-adv-x="599" 
d="M48 0v61l254 224q82 72 114 120t32 100q0 60 -41 97t-100 37q-57 0 -100.5 -29t-87.5 -91l-58 42q51 76 108 112.5t144 36.5q94 0 155.5 -56.5t61.5 -143.5q0 -72 -39 -128t-138 -144l-187 -166h371v-72h-489z" />
    <glyph glyph-name="three" unicode="3" horiz-adv-x="613" 
d="M311 -12q-165 0 -261 125l57 51q85 -104 205 -104q65 0 109 38t44 100q0 64 -54 99.5t-142 35.5h-45l-16 47l221 249h-342v71h447v-58l-220 -244q100 -8 165.5 -57.5t65.5 -141.5t-67.5 -151.5t-166.5 -59.5z" />
    <glyph glyph-name="four" unicode="4" horiz-adv-x="671" 
d="M432 0v166h-369l-20 57l396 482h69v-473h109v-66h-109v-166h-76zM138 232h294v361z" />
    <glyph glyph-name="five" unicode="5" horiz-adv-x="612" 
d="M303 -12q-139 0 -250 111l52 57q99 -96 199 -96q75 0 122 44t47 113q0 65 -48.5 106t-125.5 41q-72 0 -147 -40l-53 35l20 341h403v-73h-334l-15 -224q71 31 138 31q105 0 173.5 -58.5t68.5 -157.5q0 -102 -70 -166t-180 -64z" />
    <glyph glyph-name="six" unicode="6" horiz-adv-x="647" 
d="M333 -12q-126 0 -199 83t-73 261q0 164 78.5 272t212.5 108q109 0 207 -80l-46 -61q-82 69 -165 69q-93 0 -149 -85t-56 -221v-3q73 107 199 107q101 0 171.5 -60t70.5 -157q0 -101 -72 -167t-179 -66zM334 58q76 0 122.5 46t46.5 116q0 65 -48 107.5t-123 42.5
q-76 0 -125.5 -46.5t-49.5 -108.5q0 -67 50 -112t127 -45z" />
    <glyph glyph-name="seven" unicode="7" horiz-adv-x="596" 
d="M137 0l316 628h-385v72h475v-59l-318 -641h-88z" />
    <glyph glyph-name="eight" unicode="8" horiz-adv-x="630" 
d="M315 -10q-113 0 -188 56t-75 144q0 60 39 104t105 68q-120 55 -120 163q0 79 70.5 132t168.5 53t168.5 -53t70.5 -134q0 -106 -120 -161q144 -54 144 -173q0 -88 -75 -143.5t-188 -55.5zM315 390q68 0 114 36t46 94q0 52 -46 86.5t-114 34.5q-69 0 -114.5 -34.5
t-45.5 -88.5q0 -56 46 -92t114 -36zM315 59q84 0 133.5 38t49.5 95q0 58 -53 95.5t-130 37.5q-78 0 -130.5 -38t-52.5 -97q0 -55 49.5 -93t133.5 -38z" />
    <glyph glyph-name="nine" unicode="9" horiz-adv-x="647" 
d="M295 -12q-112 0 -216 86l46 61q85 -75 172 -75q93 0 150.5 83.5t57.5 214.5v9q-70 -112 -198 -112q-108 0 -176 61.5t-68 157.5q0 101 71 169.5t181 68.5q124 0 197.5 -83t73.5 -262q0 -167 -81 -273t-210 -106zM316 323q77 0 125.5 48t48.5 112q0 68 -50 113.5
t-128 45.5q-76 0 -122 -48.5t-46 -117.5q0 -67 48 -110t124 -43z" />
    <glyph glyph-name="colon" unicode=":" horiz-adv-x="255" 
d="M82 412v105h92v-105h-92zM82 0v105h92v-105h-92z" />
    <glyph glyph-name="semicolon" unicode=";" horiz-adv-x="255" 
d="M82 412v105h92v-105h-92zM63 -122l-12 35q67 25 67 77v10h-36v105h92v-90q0 -60 -26.5 -92t-84.5 -45z" />
    <glyph glyph-name="less" unicode="&#x3c;" horiz-adv-x="640" 
d="M541 86l-469 233v66l469 233v-77l-385 -188l385 -189v-78z" />
    <glyph glyph-name="equal" unicode="=" horiz-adv-x="640" 
d="M90 432v74h460v-74h-460zM90 198v74h460v-74h-460z" />
    <glyph glyph-name="greater" unicode="&#x3e;" horiz-adv-x="640" 
d="M99 86v77l385 188l-385 189v78l469 -233v-66z" />
    <glyph glyph-name="question" unicode="?" horiz-adv-x="537" 
d="M220 198l-15 162l5 5q96 2 147.5 40t51.5 103q0 55 -40 92.5t-106 37.5q-101 0 -182 -94l-51 49q96 116 235 116q100 0 162 -56t62 -144q0 -89 -58 -139.5t-150 -63.5l-10 -108h-51zM199 0v105h92v-105h-92z" />
    <glyph glyph-name="at" unicode="@" horiz-adv-x="980" 
d="M499 -162q-190 0 -318 127.5t-128 308.5q0 180 127.5 309t310.5 129q181 0 308.5 -118.5t127.5 -277.5q0 -119 -55.5 -182t-131.5 -63q-53 0 -89 22.5t-51 61.5q-71 -84 -165 -84q-75 0 -127 50.5t-52 131.5q0 103 71.5 176t159.5 73q99 0 146 -83l13 69l67 -9l-40 -227
q-7 -39 -7 -61q0 -38 22.5 -59.5t62.5 -21.5q58 0 99 53t41 153q0 142 -116.5 252t-283.5 110q-171 0 -286.5 -118t-115.5 -286q0 -169 116 -285.5t294 -116.5q133 0 249 68l16 -27q-123 -75 -265 -75zM450 133q64 0 114 54.5t50 125.5q0 55 -34.5 91t-87.5 36
q-65 0 -114.5 -53t-49.5 -129q0 -58 34 -91.5t88 -33.5z" />
    <glyph glyph-name="A" unicode="A" horiz-adv-x="790" 
d="M39 0l319 705h74l319 -705h-85l-82 185h-381l-83 -185h-81zM234 256h319l-159 357z" />
    <glyph glyph-name="B" unicode="B" horiz-adv-x="722" 
d="M99 0v700h298q123 0 183 -62q45 -47 45 -114q0 -114 -111 -162q150 -45 150 -171q0 -89 -69 -140t-185 -51h-311zM177 388h207q73 0 117 33t44 94q0 53 -40.5 83.5t-114.5 30.5h-213v-241zM177 71h235q80 0 126 33.5t46 93.5q0 58 -47.5 89t-138.5 31h-221v-247z" />
    <glyph glyph-name="C" unicode="C" horiz-adv-x="738" 
d="M419 -12q-151 0 -251 104.5t-100 257.5q0 151 101 256.5t253 105.5q88 0 150 -28.5t121 -84.5l-52 -56q-101 96 -220 96q-116 0 -193.5 -83t-77.5 -206q0 -122 78 -205.5t193 -83.5q68 0 120 25t106 76l52 -55q-59 -59 -124 -89t-156 -30z" />
    <glyph glyph-name="D" unicode="D" horiz-adv-x="782" 
d="M99 0v700h243q164 0 268 -99.5t104 -250.5q0 -150 -104.5 -250t-267.5 -100h-243zM178 73h164q131 0 210.5 78.5t79.5 198.5q0 119 -80 198t-210 79h-164v-554z" />
    <glyph glyph-name="E" unicode="E" horiz-adv-x="670" 
d="M99 0v700h506v-72h-427v-239h382v-72h-382v-245h432v-72h-511z" />
    <glyph glyph-name="F" unicode="F" horiz-adv-x="656" 
d="M99 0v700h503v-73h-424v-250h379v-72h-379v-305h-79z" />
    <glyph glyph-name="G" unicode="G" horiz-adv-x="784" 
d="M424 -12q-161 0 -258.5 103.5t-97.5 258.5q0 148 99 255t252 107q84 0 144.5 -23t116.5 -70l-51 -60q-92 80 -213 80q-115 0 -190.5 -84.5t-75.5 -204.5q0 -127 75.5 -209t201.5 -82q116 0 202 70v174h-213v71h289v-279q-120 -107 -281 -107z" />
    <glyph glyph-name="H" unicode="H" horiz-adv-x="760" 
d="M99 0v700h79v-311h404v311h79v-700h-79v315h-404v-315h-79z" />
    <glyph glyph-name="I" unicode="I" horiz-adv-x="291" 
d="M106 0v700h79v-700h-79z" />
    <glyph glyph-name="J" unicode="J" horiz-adv-x="553" 
d="M247 -10q-140 0 -216 124l57 49q34 -51 70.5 -75.5t89.5 -24.5q61 0 99 43.5t38 124.5v469h80v-468q0 -120 -64 -184q-60 -58 -154 -58z" />
    <glyph glyph-name="K" unicode="K" horiz-adv-x="719" 
d="M99 0v700h79v-418l402 418h102l-300 -306l313 -394h-99l-269 339l-149 -151v-188h-79z" />
    <glyph glyph-name="L" unicode="L" horiz-adv-x="619" 
d="M99 0v700h79v-627h394v-73h-473z" />
    <glyph glyph-name="M" unicode="M" horiz-adv-x="868" 
d="M99 0v700h80l255 -382l255 382h80v-700h-79v567l-255 -375h-4l-255 374v-566h-77z" />
    <glyph glyph-name="N" unicode="N" horiz-adv-x="790" 
d="M99 0v700h74l441 -561v561h77v-700h-63l-452 574v-574h-77z" />
    <glyph glyph-name="O" unicode="O" horiz-adv-x="850" 
d="M424 -12q-156 0 -256 106t-100 256q0 149 101 255.5t257 106.5t256 -106t100 -256q0 -149 -101 -255.5t-257 -106.5zM426 61q119 0 196.5 83.5t77.5 205.5q0 121 -78.5 205t-197.5 84t-196.5 -83.5t-77.5 -205.5q0 -121 78.5 -205t197.5 -84z" />
    <glyph glyph-name="P" unicode="P" horiz-adv-x="668" 
d="M99 0v700h262q120 0 191 -60t71 -164q0 -109 -78.5 -169t-196.5 -60h-170v-247h-79zM178 319h173q87 0 139.5 42.5t52.5 113.5q0 73 -50.5 112.5t-137.5 39.5h-177v-308z" />
    <glyph glyph-name="Q" unicode="Q" horiz-adv-x="850" 
d="M737 -21l-92 84q-94 -75 -221 -75q-156 0 -256 106t-100 256q0 149 101 255.5t257 106.5t256 -106t100 -256q0 -135 -84 -235l93 -77zM426 61q92 0 161 53l-130 111l53 59l129 -117q61 79 61 183q0 121 -78.5 205t-197.5 84t-196.5 -83.5t-77.5 -205.5q0 -121 78.5 -205
t197.5 -84z" />
    <glyph glyph-name="R" unicode="R" horiz-adv-x="723" 
d="M99 0v700h301q129 0 199 -70q54 -54 54 -140q0 -84 -52 -136t-138 -68l215 -286h-97l-203 272h-200v-272h-79zM178 343h215q80 0 130 39t50 107q0 65 -47.5 101.5t-131.5 36.5h-216v-284z" />
    <glyph glyph-name="S" unicode="S" horiz-adv-x="640" 
d="M339 -10q-161 0 -286 112l49 58q56 -51 112.5 -75t127.5 -24q70 0 113 33.5t43 87.5q0 51 -38 81t-144 52q-125 27 -180 73t-55 131q0 83 65 137t165 54q139 0 246 -86l-46 -61q-93 76 -202 76q-67 0 -108 -32.5t-41 -82.5q0 -52 39.5 -82t150.5 -54q119 -26 173.5 -72.5
t54.5 -127.5q0 -89 -67 -143.5t-172 -54.5z" />
    <glyph glyph-name="T" unicode="T" horiz-adv-x="648" 
d="M284 0v627h-235v73h550v-73h-235v-627h-80z" />
    <glyph glyph-name="U" unicode="U" horiz-adv-x="759" 
d="M379 -11q-133 0 -212 79.5t-79 224.5v407h79v-402q0 -113 56.5 -174.5t157.5 -61.5q99 0 155 59t56 172v407h79v-401q0 -150 -79 -230t-213 -80z" />
    <glyph glyph-name="V" unicode="V" horiz-adv-x="750" 
d="M340 -5l-301 705h88l249 -603l250 603h85l-301 -705h-70z" />
    <glyph glyph-name="W" unicode="W" horiz-adv-x="1107" 
d="M295 -5l-250 705h86l200 -583l192 585h65l192 -585l200 583h83l-250 -705h-67l-192 568l-193 -568h-66z" />
    <glyph glyph-name="X" unicode="X" horiz-adv-x="725" 
d="M46 0l269 357l-259 343h93l215 -286l213 286h92l-259 -342l269 -358h-94l-224 301l-224 -301h-91z" />
    <glyph glyph-name="Y" unicode="Y" horiz-adv-x="716" 
d="M318 0v277l-291 423h96l236 -350l238 350h92l-291 -422v-278h-80z" />
    <glyph glyph-name="Z" unicode="Z" horiz-adv-x="693" 
d="M67 0v53l453 576h-438v71h546v-53l-454 -576h454v-71h-561z" />
    <glyph glyph-name="bracketleft" unicode="[" horiz-adv-x="439" 
d="M94 -130v830h286v-60h-213v-710h213v-60h-286z" />
    <glyph glyph-name="backslash" unicode="\" horiz-adv-x="508" 
d="M458 -128l-464 926h71l464 -926h-71z" />
    <glyph glyph-name="bracketright" unicode="]" horiz-adv-x="439" 
d="M59 -130v60h214v710h-214v60h286v-830h-286z" />
    <glyph glyph-name="asciicircum" unicode="^" 
d="M65 493l155 209h60l155 -209h-68l-118 154l-118 -154h-66z" />
    <glyph glyph-name="underscore" unicode="_" horiz-adv-x="600" 
d="M-2 -160v63h604v-63h-604z" />
    <glyph glyph-name="grave" unicode="`" 
d="M257 595l-113 108l80 37l95 -145h-62z" />
    <glyph glyph-name="a" unicode="a" horiz-adv-x="579" 
d="M240 -11q-79 0 -136 43t-57 120q0 81 60 125t161 44q80 0 158 -22v16q0 68 -40 104t-113 36q-76 0 -157 -37l-23 63q96 44 188 44q110 0 167 -57q54 -54 54 -152v-316h-76v77q-69 -88 -186 -88zM255 51q72 0 122 39t50 100v48q-76 22 -151 22q-71 0 -111 -28.5t-40 -77.5
q0 -47 37.5 -75t92.5 -28z" />
    <glyph glyph-name="b" unicode="b" horiz-adv-x="664" 
d="M361 -11q-122 0 -198 110v-99h-77v730h77v-317q78 115 198 115q99 0 173 -73.5t74 -196.5q0 -121 -74 -195t-173 -74zM347 58q78 0 130 54.5t52 146.5q0 89 -53 144.5t-129 55.5q-75 0 -131 -57t-56 -144t56 -143.5t131 -56.5z" />
    <glyph glyph-name="c" unicode="c" horiz-adv-x="571" 
d="M319 -12q-112 0 -188.5 79.5t-76.5 190.5t76.5 190.5t188.5 79.5q120 0 207 -92l-49 -52q-72 76 -159 76q-78 0 -131.5 -58.5t-53.5 -143.5q0 -84 54.5 -142.5t135.5 -58.5q83 0 156 78l51 -47q-90 -100 -211 -100z" />
    <glyph glyph-name="d" unicode="d" horiz-adv-x="664" 
d="M303 -11q-99 0 -173 73.5t-74 196.5q0 121 74 195t173 74q122 0 198 -110v312h77v-730h-77v104q-78 -115 -198 -115zM317 58q75 0 131 57t56 145q0 86 -56 142.5t-131 56.5q-78 0 -130 -54.5t-52 -146.5q0 -89 53 -144.5t129 -55.5z" />
    <glyph glyph-name="e" unicode="e" horiz-adv-x="592" 
d="M132 227q8 -79 59.5 -125.5t122.5 -46.5q93 0 163 73l48 -43q-87 -97 -213 -97q-109 0 -183.5 75.5t-74.5 194.5q0 113 71 191.5t177 78.5q111 0 176 -78t65 -196q0 -15 -1 -27h-410zM132 289h333q-7 75 -49.5 124.5t-115.5 49.5q-66 0 -113 -49t-55 -125z" />
    <glyph glyph-name="f" unicode="f" horiz-adv-x="367" 
d="M115 0v449h-71v67h71v45q0 88 45 133q40 40 111 40q49 0 85 -13v-67q-45 13 -75 13q-90 0 -90 -110v-42h164v-66h-163v-449h-77z" />
    <glyph glyph-name="g" unicode="g" horiz-adv-x="664" 
d="M315 -162q-131 0 -235 72l35 60q91 -66 199 -66q87 0 137.5 47.5t50.5 136.5v61q-82 -109 -203 -109q-98 0 -170.5 67.5t-72.5 176.5t73 176.5t170 67.5q124 0 202 -104v93h77v-427q0 -117 -66 -183q-69 -69 -197 -69zM314 108q76 0 133 50t57 127t-56.5 126t-133.5 49
q-76 0 -127.5 -48.5t-51.5 -127.5q0 -76 52.5 -126t126.5 -50z" />
    <glyph glyph-name="h" unicode="h" horiz-adv-x="616" 
d="M86 0v730h77v-303q61 101 177 101q92 0 145 -56.5t53 -150.5v-321h-77v302q0 73 -37.5 114.5t-105.5 41.5q-67 0 -111 -45t-44 -117v-296h-77z" />
    <glyph glyph-name="i" unicode="i" horiz-adv-x="263" 
d="M88 630v85h88v-85h-88zM93 0v517h77v-517h-77z" />
    <glyph glyph-name="j" unicode="j" horiz-adv-x="263" 
d="M88 630v85h88v-85h-88zM44 -163q-27 0 -48 5v63q18 -3 38 -3q59 0 59 69v546h77v-547q0 -67 -33 -100t-93 -33z" />
    <glyph glyph-name="k" unicode="k" horiz-adv-x="569" 
d="M86 0v730h77v-504l279 291h96l-217 -222l224 -295h-92l-185 241l-105 -106v-135h-77z" />
    <glyph glyph-name="l" unicode="l" horiz-adv-x="263" 
d="M93 0v730h77v-730h-77z" />
    <glyph glyph-name="m" unicode="m" horiz-adv-x="951" 
d="M86 0v517h77v-87q65 98 167 98q116 0 166 -103q67 103 182 103q89 0 140.5 -56t51.5 -152v-320h-77v302q0 75 -35.5 115.5t-98.5 40.5q-61 0 -102 -43t-41 -117v-298h-76v304q0 72 -35.5 113t-97.5 41t-103 -46t-41 -117v-295h-77z" />
    <glyph glyph-name="n" unicode="n" horiz-adv-x="616" 
d="M86 0v517h77v-90q61 101 177 101q92 0 145 -56.5t53 -150.5v-321h-77v302q0 73 -37.5 114.5t-105.5 41.5q-67 0 -111 -45t-44 -117v-296h-77z" />
    <glyph glyph-name="o" unicode="o" horiz-adv-x="646" 
d="M322 -12q-115 0 -191.5 79t-76.5 191q0 111 77.5 190.5t192.5 79.5t192 -79t77 -191q0 -111 -78 -190.5t-193 -79.5zM324 57q83 0 136.5 58t53.5 143q0 84 -55.5 143t-136.5 59q-83 0 -136 -58.5t-53 -143.5q0 -84 55 -142.5t136 -58.5z" />
    <glyph glyph-name="p" unicode="p" horiz-adv-x="664" 
d="M86 -160v677h77v-104q78 115 198 115q99 0 173 -73.5t74 -196.5q0 -121 -74 -195t-173 -74q-122 0 -198 110v-259h-77zM347 58q78 0 130 54.5t52 146.5q0 89 -53 144.5t-129 55.5q-75 0 -131 -57t-56 -144t56 -143.5t131 -56.5z" />
    <glyph glyph-name="q" unicode="q" horiz-adv-x="664" 
d="M501 -160v264q-78 -115 -198 -115q-99 0 -173 73.5t-74 196.5q0 121 74 195t173 74q122 0 198 -110v99h77v-677h-77zM317 58q75 0 131 57t56 145q0 86 -56 142.5t-131 56.5q-78 0 -130 -54.5t-52 -146.5q0 -89 53 -144.5t129 -55.5z" />
    <glyph glyph-name="r" unicode="r" horiz-adv-x="405" 
d="M86 0v517h77v-135q30 67 85 107t126 37v-83h-6q-89 0 -147 -62t-58 -175v-206h-77z" />
    <glyph glyph-name="s" unicode="s" horiz-adv-x="498" 
d="M257 -10q-56 0 -113.5 20.5t-100.5 55.5l39 55q88 -66 179 -66q47 0 77 23t30 61q0 35 -32.5 54t-96.5 37q-39 11 -62 20t-52 25.5t-43 42t-14 60.5q0 66 49.5 107t126.5 41q100 0 186 -57l-35 -58q-77 50 -153 50q-45 0 -72.5 -21.5t-27.5 -55.5q0 -14 8 -26t18 -20
t31.5 -17t34.5 -13t41 -13q37 -11 61 -21t51 -27t40.5 -42.5t13.5 -59.5q0 -72 -52 -113.5t-132 -41.5z" />
    <glyph glyph-name="t" unicode="t" horiz-adv-x="404" 
d="M259 -9q-67 0 -106.5 35.5t-39.5 110.5v312h-72v68h72v156h77v-156h164v-68h-164v-302q0 -86 87 -86q38 0 75 18v-66q-42 -22 -93 -22z" />
    <glyph glyph-name="u" unicode="u" horiz-adv-x="616" 
d="M276 -11q-92 0 -145 56.5t-53 150.5v321h77v-302q0 -73 37.5 -114.5t105.5 -41.5q67 0 111 45t44 117v296h76v-517h-76v90q-63 -101 -177 -101z" />
    <glyph glyph-name="v" unicode="v" horiz-adv-x="587" 
d="M259 -4l-224 521h85l174 -429l175 429h83l-225 -521h-68z" />
    <glyph glyph-name="w" unicode="w" horiz-adv-x="861" 
d="M223 -4l-181 521h82l136 -415l139 417h64l140 -417l136 415h80l-182 -521h-67l-139 408l-140 -408h-68z" />
    <glyph glyph-name="x" unicode="x" horiz-adv-x="574" 
d="M39 0l203 263l-195 254h88l153 -200l153 200h86l-196 -252l204 -265h-89l-160 211l-161 -211h-86z" />
    <glyph glyph-name="y" unicode="y" horiz-adv-x="591" 
d="M166 -163q-56 0 -110 26l26 61q37 -19 81 -19q35 0 59 21.5t47 75.5l-235 515h85l188 -431l166 431h82l-217 -534q-33 -79 -73 -112.5t-99 -33.5z" />
    <glyph glyph-name="z" unicode="z" horiz-adv-x="556" 
d="M56 0v49l343 403h-331v65h436v-49l-344 -403h344v-65h-448z" />
    <glyph glyph-name="braceleft" unicode="{" horiz-adv-x="483" 
d="M416 -141q-127 23 -172 70t-45 132q0 7 0.5 37t0.5 39q0 61 -26.5 90.5t-91.5 29.5h-26v60h26q65 0 91.5 29.5t26.5 90.5q0 9 -0.5 39t-0.5 37q0 85 45 132t172 70l12 -51q-100 -26 -128 -57.5t-28 -103.5q0 -10 0.5 -37t0.5 -38q0 -60 -26.5 -92.5t-77.5 -48.5
q53 -17 78.5 -49t25.5 -92q0 -11 -0.5 -38t-0.5 -37q0 -72 28 -103.5t128 -57.5z" />
    <glyph glyph-name="bar" unicode="|" horiz-adv-x="303" 
d="M119 -128v926h65v-926h-65z" />
    <glyph glyph-name="braceright" unicode="}" horiz-adv-x="483" 
d="M67 -141l-13 51q101 26 129 57.5t28 103.5q0 10 -0.5 37t-0.5 38q0 60 26.5 92.5t77.5 48.5q-53 17 -78.5 49t-25.5 92q0 11 0.5 38t0.5 37q0 72 -28 103.5t-129 57.5l13 51q127 -23 172 -70t45 -132q0 -7 -0.5 -37t-0.5 -39q0 -61 26.5 -90.5t90.5 -29.5h26v-60h-26
q-64 0 -90.5 -29.5t-26.5 -90.5q0 -9 0.5 -39t0.5 -37q0 -85 -45 -132t-172 -70z" />
    <glyph glyph-name="asciitilde" unicode="~" horiz-adv-x="473" 
d="M120 237l-47 13q15 57 37 81.5t58 24.5q23 0 70.5 -20.5t63.5 -20.5q19 0 29.5 10.5t22.5 39.5l46 -13q-15 -57 -36.5 -81.5t-57.5 -24.5q-24 0 -71 20.5t-63 20.5q-19 0 -29.5 -10.5t-22.5 -39.5z" />
    <glyph glyph-name="uni00A0" unicode="&#xa0;" horiz-adv-x="300" 
 />
    <glyph glyph-name="exclamdown" unicode="&#xa1;" horiz-adv-x="271" 
d="M91 0v57l23 445h43l24 -445v-57h-90zM90 595v105h92v-105h-92z" />
    <glyph glyph-name="cent" unicode="&#xa2;" horiz-adv-x="581" 
d="M212 -6l22 106q-79 28 -127.5 97.5t-48.5 157.5q0 111 77 190.5t188 79.5h13l15 81h65l-18 -90q70 -19 132 -84l-50 -52q-51 52 -98 67l-77 -392q7 -1 21 -1q87 0 159 77l48 -45q-89 -101 -211 -101q-18 0 -27 1l-18 -92h-65zM250 169l75 387h-4q-78 0 -131.5 -58
t-53.5 -143q0 -62 31 -112t83 -74z" />
    <glyph glyph-name="sterling" unicode="&#xa3;" horiz-adv-x="644" 
d="M67 0v46l84 21v228h-84v69h84v108q0 115 63 178q60 60 158 60q131 0 214 -108l-61 -48q-33 41 -68 62t-86 21q-59 0 -98 -37q-43 -42 -43 -128v-108h279v-69h-279v-225h355v-70h-518z" />
    <glyph glyph-name="currency" unicode="&#xa4;" horiz-adv-x="720" 
d="M430 -12q-105 0 -180.5 68t-102.5 181h-91v63h81q-2 16 -2 50q0 35 4 58h-83v62h94q29 108 103 175t172 67q149 0 241 -137l-60 -43q-40 56 -81.5 82.5t-102.5 26.5q-65 0 -116 -47t-75 -124h257v-62h-270q-4 -21 -4 -58q0 -18 2 -50h272v-63h-259q23 -82 77 -130
t127 -48q56 0 97.5 29t80.5 86l57 -40q-46 -69 -102.5 -107.5t-135.5 -38.5z" />
    <glyph glyph-name="yen" unicode="&#xa5;" horiz-adv-x="686" 
d="M305 0v116h-205v62h205v88h-205v62h181l-254 372h94l223 -342l225 342h90l-255 -372h182v-62h-205v-88h205v-62h-205v-116h-76z" />
    <glyph glyph-name="brokenbar" unicode="&#xa6;" horiz-adv-x="222" 
d="M73 -89v250h75v-250h-75zM73 411v250h75v-250h-75z" />
    <glyph glyph-name="section" unicode="&#xa7;" horiz-adv-x="632" 
d="M328 -10q-136 0 -229 95l50 48q79 -77 181 -77q51 0 77 18.5t26 49.5q0 28 -36.5 49.5t-126.5 42.5q-114 27 -161 59.5t-47 84.5q0 45 36 74.5t96 39.5q-74 38 -74 103q0 60 50 96.5t134 36.5q136 0 229 -95l-50 -48q-79 77 -181 77q-51 0 -77 -18.5t-26 -49.5
q0 -28 35.5 -49t127.5 -43q115 -27 161.5 -59t46.5 -85q0 -44 -36 -74t-96 -40q74 -36 74 -103q0 -60 -50 -96.5t-134 -36.5zM387 263q48 0 78.5 20.5t30.5 50.5q0 26 -31.5 47t-110.5 40q-65 16 -109 16q-48 0 -78.5 -20.5t-30.5 -50.5q0 -26 31.5 -47t110.5 -40
q64 -16 109 -16z" />
    <glyph glyph-name="dieresis" unicode="&#xa8;" 
d="M117 595v95h90v-95h-90zM293 595v95h90v-95h-90z" />
    <glyph glyph-name="copyright" unicode="&#xa9;" horiz-adv-x="830" 
d="M414 -12q-151 0 -256 106t-105 256q0 149 106 255.5t257 106.5t256 -106t105 -256q0 -149 -106 -255.5t-257 -106.5zM414 19q140 0 235 97.5t95 235.5q0 137 -94.5 233t-233.5 96q-140 0 -235 -97.5t-95 -235.5q0 -137 94.5 -233t233.5 -96zM419 163q-79 0 -132.5 56
t-53.5 137q0 79 54 135t134 56q81 0 144 -60l-37 -40q-52 50 -108 50t-93.5 -41.5t-37.5 -100.5q0 -58 38.5 -99.5t93.5 -41.5q57 0 110 50l36 -35q-64 -66 -148 -66z" />
    <glyph glyph-name="ordfeminine" unicode="&#xaa;" horiz-adv-x="390" 
d="M58 289v47h260v-47h-260zM168 408q-43 0 -75 24t-32 68t34 68.5t89 24.5q40 0 80 -11v5q0 34 -20.5 52.5t-57.5 18.5t-86 -22l-15 42q57 25 106 25q58 0 90 -29.5t32 -86.5v-173h-49v38q-36 -44 -96 -44zM177 450q36 0 61.5 19.5t25.5 50.5v24q-37 11 -76 11
q-29 0 -52 -13.5t-23 -41.5q0 -23 18.5 -36.5t45.5 -13.5z" />
    <glyph glyph-name="guillemotleft" unicode="&#xab;" horiz-adv-x="550" 
d="M210 41l-162 214v8l162 213l59 -33l-135 -183l135 -185zM433 41l-162 214v8l162 213l58 -33l-135 -183l135 -185z" />
    <glyph glyph-name="logicalnot" unicode="&#xac;" horiz-adv-x="640" 
d="M475 253v178h-386v75h461v-253h-75z" />
    <glyph glyph-name="uni00AD" unicode="&#xad;" horiz-adv-x="408" 
d="M65 260v81h278v-81h-278z" />
    <glyph glyph-name="registered" unicode="&#xae;" horiz-adv-x="830" 
d="M414 -12q-151 0 -256 106t-105 256q0 149 106 255.5t257 106.5t256 -106t105 -256q0 -149 -106 -255.5t-257 -106.5zM414 19q140 0 235 97.5t95 235.5q0 137 -94.5 233t-233.5 96q-140 0 -235 -97.5t-95 -235.5q0 -137 94.5 -233t233.5 -96zM273 175v371h166
q71 0 110 -39q30 -28 30 -74q0 -43 -26 -71t-70 -38l115 -149h-68l-109 140h-93v-140h-55zM328 364h106q40 0 64 18t24 50q0 29 -22.5 46.5t-62.5 17.5h-109v-132z" />
    <glyph glyph-name="macron" unicode="&#xaf;" 
d="M92 600v67h316v-67h-316z" />
    <glyph glyph-name="degree" unicode="&#xb0;" horiz-adv-x="458" 
d="M229 400q-62 0 -109.5 46t-47.5 108q0 61 47.5 106.5t109.5 45.5t109.5 -46t47.5 -108q0 -60 -47.5 -106t-109.5 -46zM229 452q42 0 70.5 30.5t28.5 71.5q0 40 -28.5 70t-70.5 30t-70.5 -30.5t-28.5 -71.5q0 -40 28.5 -70t70.5 -30z" />
    <glyph glyph-name="plusminus" unicode="&#xb1;" horiz-adv-x="640" 
d="M72 14v70h496v-70h-496zM281 134v168h-211v72h211v168h77v-168h212v-72h-212v-168h-77z" />
    <glyph glyph-name="twosuperior" unicode="&#xb2;" 
d="M0 0v700h500v-700h-500zM81 49h339l-170 255zM49 96l171 254l-171 254v-508zM450 96v508l-171 -254zM250 395l170 255h-339z" />
    <glyph glyph-name="threesuperior" unicode="&#xb3;" 
d="M0 0v700h500v-700h-500zM81 49h339l-170 255zM49 96l171 254l-171 254v-508zM450 96v508l-171 -254zM250 395l170 255h-339z" />
    <glyph glyph-name="acute" unicode="&#xb4;" 
d="M181 595l95 145l80 -37l-113 -108h-62z" />
    <glyph glyph-name="mu" unicode="&#xb5;" horiz-adv-x="629" 
d="M86 -160v677h77v-302q0 -68 40.5 -113t104.5 -45q67 0 112.5 46.5t45.5 117.5v296h77v-517h-77v90q-60 -100 -174 -100q-81 0 -129 68v-218h-77z" />
    <glyph glyph-name="paragraph" unicode="&#xb6;" horiz-adv-x="510" 
d="M338 0v264h-11q-123 0 -201 58t-78 161q0 100 73 158.5t191 58.5h106v-700h-80z" />
    <glyph glyph-name="periodcentered" unicode="&#xb7;" horiz-adv-x="245" 
d="M77 248v105h92v-105h-92z" />
    <glyph glyph-name="cedilla" unicode="&#xb8;" 
d="M225 -155l-75 34l90 131h61z" />
    <glyph glyph-name="onesuperior" unicode="&#xb9;" 
d="M0 0v700h500v-700h-500zM81 49h339l-170 255zM49 96l171 254l-171 254v-508zM450 96v508l-171 -254zM250 395l170 255h-339z" />
    <glyph glyph-name="ordmasculine" unicode="&#xba;" horiz-adv-x="390" 
d="M51 289v47h288v-47h-288zM194 407q-62 0 -104 43.5t-42 105.5t42.5 105.5t105.5 43.5q62 0 104 -43.5t42 -105.5t-42.5 -105.5t-105.5 -43.5zM196 455q41 0 66.5 29t25.5 72q0 42 -27 71.5t-67 29.5q-41 0 -66.5 -29t-25.5 -72q0 -42 27 -71.5t67 -29.5z" />
    <glyph glyph-name="guillemotright" unicode="&#xbb;" horiz-adv-x="550" 
d="M117 41l-58 33l135 184l-135 184l58 34l162 -213v-8zM340 41l-59 33l135 184l-135 184l59 34l162 -213v-8z" />
    <glyph glyph-name="onequarter" unicode="&#xbc;" 
d="M0 0v700h500v-700h-500zM81 49h339l-170 255zM49 96l171 254l-171 254v-508zM450 96v508l-171 -254zM250 395l170 255h-339z" />
    <glyph glyph-name="onehalf" unicode="&#xbd;" 
d="M0 0v700h500v-700h-500zM81 49h339l-170 255zM49 96l171 254l-171 254v-508zM450 96v508l-171 -254zM250 395l170 255h-339z" />
    <glyph glyph-name="threequarters" unicode="&#xbe;" 
d="M0 0v700h500v-700h-500zM81 49h339l-170 255zM49 96l171 254l-171 254v-508zM450 96v508l-171 -254zM250 395l170 255h-339z" />
    <glyph glyph-name="questiondown" unicode="&#xbf;" horiz-adv-x="537" 
d="M272 -9q-101 0 -162.5 56t-61.5 144q0 89 58 139.5t150 63.5l9 108h51l16 -162l-5 -5q-96 -2 -147.5 -40t-51.5 -103q0 -55 40 -92.5t106 -37.5q101 0 181 94l51 -49q-96 -116 -234 -116zM246 595v105h92v-105h-92z" />
    <glyph glyph-name="Agrave" unicode="&#xc0;" horiz-adv-x="790" 
d="M39 0l319 705h74l319 -705h-85l-82 185h-381l-83 -185h-81zM234 256h319l-159 357zM363 762l-113 108l80 37l95 -145h-62z" />
    <glyph glyph-name="Aacute" unicode="&#xc1;" horiz-adv-x="790" 
d="M39 0l319 705h74l319 -705h-85l-82 185h-381l-83 -185h-81zM234 256h319l-159 357zM365 762l95 145l80 -37l-113 -108h-62z" />
    <glyph glyph-name="Acircumflex" unicode="&#xc2;" horiz-adv-x="790" 
d="M39 0l319 705h74l319 -705h-85l-82 185h-381l-83 -185h-81zM234 256h319l-159 357zM255 759l106 131h68l106 -131h-66l-75 67l-75 -67h-64z" />
    <glyph glyph-name="Atilde" unicode="&#xc3;" horiz-adv-x="790" 
d="M39 0l319 705h74l319 -705h-85l-82 185h-381l-83 -185h-81zM234 256h319l-159 357zM278 753l-47 13q15 56 37 80.5t58 24.5q24 0 71 -20t63 -20q19 0 29.5 10.5t22.5 38.5l47 -13q-15 -56 -37 -80.5t-58 -24.5q-24 0 -71 20t-63 20q-19 0 -29.5 -10.5t-22.5 -38.5z" />
    <glyph glyph-name="Adieresis" unicode="&#xc4;" horiz-adv-x="790" 
d="M39 0l319 705h74l319 -705h-85l-82 185h-381l-83 -185h-81zM234 256h319l-159 357zM262 762v95h90v-95h-90zM438 762v95h90v-95h-90z" />
    <glyph glyph-name="Aring" unicode="&#xc5;" horiz-adv-x="790" 
d="M39 0l307 680q-55 29 -55 88q0 40 31 69.5t73 29.5t73 -29.5t31 -71.5q0 -57 -55 -86l307 -680h-85l-82 185h-381l-83 -185h-81zM234 256h319l-159 357zM395 705q25 0 43.5 18.5t18.5 44.5q0 25 -18.5 43t-43.5 18q-26 0 -44 -18.5t-18 -44.5q0 -25 18.5 -43t43.5 -18z
" />
    <glyph glyph-name="AE" unicode="&#xc6;" horiz-adv-x="1045" 
d="M17 0l411 700h552v-72h-409v-239h364v-72h-364v-245h414v-72h-494v185h-282l-109 -185h-83zM249 256h242v374h-24z" />
    <glyph glyph-name="Ccedilla" unicode="&#xc7;" horiz-adv-x="738" 
d="M369 -155l-75 34l77 112q-133 17 -218 118t-85 241q0 151 101 256.5t253 105.5q89 0 152 -28t121 -83l-54 -58q-101 96 -220 96q-116 0 -193.5 -83t-77.5 -206q0 -122 78 -205.5t193 -83.5q68 0 120 25t106 76l52 -51q-57 -58 -118.5 -88.5t-145.5 -34.5z" />
    <glyph glyph-name="Egrave" unicode="&#xc8;" horiz-adv-x="670" 
d="M99 0v700h506v-72h-427v-239h382v-72h-382v-245h432v-72h-511zM340 762l-113 108l80 37l95 -145h-62z" />
    <glyph glyph-name="Eacute" unicode="&#xc9;" horiz-adv-x="670" 
d="M99 0v700h506v-72h-427v-239h382v-72h-382v-245h432v-72h-511zM297 762l95 145l80 -37l-113 -108h-62z" />
    <glyph glyph-name="Ecircumflex" unicode="&#xca;" horiz-adv-x="670" 
d="M99 0v700h506v-72h-427v-239h382v-72h-382v-245h432v-72h-511zM208 762l106 131h68l106 -131h-66l-75 67l-75 -67h-64z" />
    <glyph glyph-name="Edieresis" unicode="&#xcb;" horiz-adv-x="670" 
d="M99 0v700h506v-72h-427v-239h382v-72h-382v-245h432v-72h-511zM215 762v95h90v-95h-90zM391 762v95h90v-95h-90z" />
    <glyph glyph-name="Igrave" unicode="&#xcc;" horiz-adv-x="291" 
d="M106 0v700h79v-700h-79zM115 762l-113 108l80 37l95 -145h-62z" />
    <glyph glyph-name="Iacute" unicode="&#xcd;" horiz-adv-x="291" 
d="M106 0v700h79v-700h-79zM114 762l95 145l80 -37l-113 -108h-62z" />
    <glyph glyph-name="Icircumflex" unicode="&#xce;" horiz-adv-x="291" 
d="M106 0v700h79v-700h-79zM6 762l106 131h68l106 -131h-66l-75 67l-75 -67h-64z" />
    <glyph glyph-name="Idieresis" unicode="&#xcf;" horiz-adv-x="291" 
d="M106 0v700h79v-700h-79zM13 762v95h90v-95h-90zM189 762v95h90v-95h-90z" />
    <glyph glyph-name="Eth" unicode="&#xd0;" horiz-adv-x="812" 
d="M129 0v316h-75v72h75v312h243q164 0 268 -99.5t104 -250.5q0 -150 -104.5 -250t-267.5 -100h-243zM208 73h164q131 0 210.5 78.5t79.5 198.5q0 119 -80 198t-210 79h-164v-239h210v-72h-210v-243z" />
    <glyph glyph-name="Ntilde" unicode="&#xd1;" horiz-adv-x="790" 
d="M99 0v700h74l441 -561v561h77v-700h-63l-452 574v-574h-77zM278 753l-47 13q15 56 37 80.5t58 24.5q24 0 71 -20t63 -20q19 0 29.5 10.5t22.5 38.5l47 -13q-15 -56 -37 -80.5t-58 -24.5q-24 0 -71 20t-63 20q-19 0 -29.5 -10.5t-22.5 -38.5z" />
    <glyph glyph-name="Ograve" unicode="&#xd2;" horiz-adv-x="850" 
d="M424 -12q-156 0 -256 106t-100 256q0 149 101 255.5t257 106.5t256 -106t100 -256q0 -149 -101 -255.5t-257 -106.5zM426 61q119 0 196.5 83.5t77.5 205.5q0 121 -78.5 205t-197.5 84t-196.5 -83.5t-77.5 -205.5q0 -121 78.5 -205t197.5 -84zM389 762l-113 108l80 37
l95 -145h-62z" />
    <glyph glyph-name="Oacute" unicode="&#xd3;" horiz-adv-x="850" 
d="M424 -12q-156 0 -256 106t-100 256q0 149 101 255.5t257 106.5t256 -106t100 -256q0 -149 -101 -255.5t-257 -106.5zM426 61q119 0 196.5 83.5t77.5 205.5q0 121 -78.5 205t-197.5 84t-196.5 -83.5t-77.5 -205.5q0 -121 78.5 -205t197.5 -84zM399 762l95 145l80 -37
l-113 -108h-62z" />
    <glyph glyph-name="Ocircumflex" unicode="&#xd4;" horiz-adv-x="850" 
d="M424 -12q-156 0 -256 106t-100 256q0 149 101 255.5t257 106.5t256 -106t100 -256q0 -149 -101 -255.5t-257 -106.5zM426 61q119 0 196.5 83.5t77.5 205.5q0 121 -78.5 205t-197.5 84t-196.5 -83.5t-77.5 -205.5q0 -121 78.5 -205t197.5 -84zM285 762l106 131h68
l106 -131h-66l-75 67l-75 -67h-64z" />
    <glyph glyph-name="Otilde" unicode="&#xd5;" horiz-adv-x="850" 
d="M424 -12q-156 0 -256 106t-100 256q0 149 101 255.5t257 106.5t256 -106t100 -256q0 -149 -101 -255.5t-257 -106.5zM426 61q119 0 196.5 83.5t77.5 205.5q0 121 -78.5 205t-197.5 84t-196.5 -83.5t-77.5 -205.5q0 -121 78.5 -205t197.5 -84zM308 753l-47 13
q15 56 37 80.5t58 24.5q24 0 71 -20t63 -20q19 0 29.5 10.5t22.5 38.5l47 -13q-15 -56 -37 -80.5t-58 -24.5q-24 0 -71 20t-63 20q-19 0 -29.5 -10.5t-22.5 -38.5z" />
    <glyph glyph-name="Odieresis" unicode="&#xd6;" horiz-adv-x="850" 
d="M424 -12q-156 0 -256 106t-100 256q0 149 101 255.5t257 106.5t256 -106t100 -256q0 -149 -101 -255.5t-257 -106.5zM426 61q119 0 196.5 83.5t77.5 205.5q0 121 -78.5 205t-197.5 84t-196.5 -83.5t-77.5 -205.5q0 -121 78.5 -205t197.5 -84zM292 762v95h90v-95h-90z
M468 762v95h90v-95h-90z" />
    <glyph glyph-name="multiply" unicode="&#xd7;" horiz-adv-x="640" 
d="M130 94l-51 52l189 189l-189 189l51 52l189 -191l189 191l51 -52l-189 -189l189 -189l-51 -52l-189 190z" />
    <glyph glyph-name="Oslash" unicode="&#xd8;" horiz-adv-x="850" 
d="M424 -12q-127 0 -219 73l-62 -66h-83l99 108q-91 102 -91 247q0 149 101 255.5t257 106.5q128 0 219 -74l62 67h83l-99 -108q91 -102 91 -247q0 -149 -101 -255.5t-257 -106.5zM426 60q119 0 196.5 84t77.5 206q0 107 -63 187l-381 -416q72 -61 170 -61zM213 163l381 416
q-72 61 -170 61q-119 0 -196.5 -84t-77.5 -206q0 -107 63 -187z" />
    <glyph glyph-name="Ugrave" unicode="&#xd9;" horiz-adv-x="759" 
d="M379 -11q-133 0 -212 79.5t-79 224.5v407h79v-402q0 -113 56.5 -174.5t157.5 -61.5q99 0 155 59t56 172v407h79v-401q0 -150 -79 -230t-213 -80zM354 757l-113 108l80 37l95 -145h-62z" />
    <glyph glyph-name="Uacute" unicode="&#xda;" horiz-adv-x="759" 
d="M379 -11q-133 0 -212 79.5t-79 224.5v407h79v-402q0 -113 56.5 -174.5t157.5 -61.5q99 0 155 59t56 172v407h79v-401q0 -150 -79 -230t-213 -80zM343 757l95 145l80 -37l-113 -108h-62z" />
    <glyph glyph-name="Ucircumflex" unicode="&#xdb;" horiz-adv-x="759" 
d="M379 -11q-133 0 -212 79.5t-79 224.5v407h79v-402q0 -113 56.5 -174.5t157.5 -61.5q99 0 155 59t56 172v407h79v-401q0 -150 -79 -230t-213 -80zM239 759l106 131h68l106 -131h-66l-75 67l-75 -67h-64z" />
    <glyph glyph-name="Udieresis" unicode="&#xdc;" horiz-adv-x="759" 
d="M379 -11q-133 0 -212 79.5t-79 224.5v407h79v-402q0 -113 56.5 -174.5t157.5 -61.5q99 0 155 59t56 172v407h79v-401q0 -150 -79 -230t-213 -80zM246 759v95h90v-95h-90zM422 759v95h90v-95h-90z" />
    <glyph glyph-name="Yacute" unicode="&#xdd;" horiz-adv-x="716" 
d="M318 0v277l-291 423h96l236 -350l238 350h92l-291 -422v-278h-80zM329 757l95 145l80 -37l-113 -108h-62z" />
    <glyph glyph-name="Thorn" unicode="&#xde;" horiz-adv-x="673" 
d="M99 0v700h79v-120h183q119 0 190.5 -60t71.5 -164q0 -109 -78.5 -169.5t-196.5 -60.5h-170v-126h-79zM178 198h173q87 0 139.5 43t52.5 114q0 73 -50.5 112.5t-137.5 39.5h-177v-309z" />
    <glyph glyph-name="germandbls" unicode="&#xdf;" horiz-adv-x="620" 
d="M292 -2v62q90 2 140.5 36.5t50.5 97.5q0 58 -50.5 93t-140.5 44v57q148 55 148 164q0 52 -36.5 84.5t-94.5 32.5q-65 0 -105.5 -45.5t-40.5 -121.5v-502h-77v501q0 106 61.5 171t165.5 65q93 0 149.5 -51.5t56.5 -130.5q0 -65 -39.5 -111t-99.5 -72q79 -18 130.5 -62
t51.5 -118q0 -91 -70.5 -142.5t-192.5 -51.5h-7z" />
    <glyph glyph-name="agrave" unicode="&#xe0;" horiz-adv-x="579" 
d="M240 -11q-79 0 -136 43t-57 120q0 81 60 125t161 44q80 0 158 -22v16q0 68 -40 104t-113 36q-76 0 -157 -37l-23 63q96 44 188 44q110 0 167 -57q54 -54 54 -152v-316h-76v77q-69 -88 -186 -88zM255 51q72 0 122 39t50 100v48q-76 22 -151 22q-71 0 -111 -28.5t-40 -77.5
q0 -47 37.5 -75t92.5 -28zM261 595l-113 108l80 37l95 -145h-62z" />
    <glyph glyph-name="aacute" unicode="&#xe1;" horiz-adv-x="579" 
d="M240 -11q-79 0 -136 43t-57 120q0 81 60 125t161 44q80 0 158 -22v16q0 68 -40 104t-113 36q-76 0 -157 -37l-23 63q96 44 188 44q110 0 167 -57q54 -54 54 -152v-316h-76v77q-69 -88 -186 -88zM255 51q72 0 122 39t50 100v48q-76 22 -151 22q-71 0 -111 -28.5t-40 -77.5
q0 -47 37.5 -75t92.5 -28zM248 595l95 145l80 -37l-113 -108h-62z" />
    <glyph glyph-name="acircumflex" unicode="&#xe2;" horiz-adv-x="579" 
d="M240 -11q-79 0 -136 43t-57 120q0 81 60 125t161 44q80 0 158 -22v16q0 68 -40 104t-113 36q-76 0 -157 -37l-23 63q96 44 188 44q110 0 167 -57q54 -54 54 -152v-316h-76v77q-69 -88 -186 -88zM255 51q72 0 122 39t50 100v48q-76 22 -151 22q-71 0 -111 -28.5t-40 -77.5
q0 -47 37.5 -75t92.5 -28zM151 595l106 131h68l106 -131h-66l-75 67l-75 -67h-64z" />
    <glyph glyph-name="atilde" unicode="&#xe3;" horiz-adv-x="579" 
d="M240 -11q-79 0 -136 43t-57 120q0 81 60 125t161 44q80 0 158 -22v16q0 68 -40 104t-113 36q-76 0 -157 -37l-23 63q96 44 188 44q110 0 167 -57q54 -54 54 -152v-316h-76v77q-69 -88 -186 -88zM255 51q72 0 122 39t50 100v48q-76 22 -151 22q-71 0 -111 -28.5t-40 -77.5
q0 -47 37.5 -75t92.5 -28zM175 586l-47 13q15 56 37 80.5t58 24.5q24 0 71 -20t63 -20q19 0 29.5 10.5t22.5 38.5l47 -13q-15 -56 -37 -80.5t-58 -24.5q-24 0 -71 20t-63 20q-19 0 -29.5 -10.5t-22.5 -38.5z" />
    <glyph glyph-name="adieresis" unicode="&#xe4;" horiz-adv-x="579" 
d="M240 -11q-79 0 -136 43t-57 120q0 81 60 125t161 44q80 0 158 -22v16q0 68 -40 104t-113 36q-76 0 -157 -37l-23 63q96 44 188 44q110 0 167 -57q54 -54 54 -152v-316h-76v77q-69 -88 -186 -88zM255 51q72 0 122 39t50 100v48q-76 22 -151 22q-71 0 -111 -28.5t-40 -77.5
q0 -47 37.5 -75t92.5 -28zM158 595v95h90v-95h-90zM334 595v95h90v-95h-90z" />
    <glyph glyph-name="aring" unicode="&#xe5;" horiz-adv-x="579" 
d="M240 -11q-79 0 -136 43t-57 120q0 81 60 125t161 44q80 0 158 -22v16q0 68 -40 104t-113 36q-76 0 -157 -37l-23 63q96 44 188 44q110 0 167 -57q54 -54 54 -152v-316h-76v77q-69 -88 -186 -88zM255 51q72 0 122 39t50 100v48q-76 22 -151 22q-71 0 -111 -28.5t-40 -77.5
q0 -47 37.5 -75t92.5 -28zM291 593q-42 0 -73 29.5t-31 71.5q0 40 31 69.5t73 29.5t73 -29.5t31 -71.5q0 -40 -31 -69.5t-73 -29.5zM291 631q25 0 43.5 18.5t18.5 44.5q0 25 -18.5 43t-43.5 18q-26 0 -44 -18.5t-18 -44.5q0 -25 18.5 -43t43.5 -18z" />
    <glyph glyph-name="ae" unicode="&#xe6;" horiz-adv-x="953" 
d="M236 -11q-75 0 -132 43.5t-57 119.5q0 81 59.5 125t157.5 44q67 0 153 -22v16q0 69 -39 104.5t-109 35.5q-72 0 -153 -37l-23 63q96 44 184 44q71 0 120.5 -28.5t68.5 -83.5q31 53 83.5 84t114.5 31q111 0 175.5 -78t64.5 -196q0 -15 -1 -27h-410q8 -79 59.5 -125.5
t122.5 -46.5q93 0 163 73l48 -43q-87 -97 -213 -97q-62 0 -116 27.5t-89 76.5q-43 -45 -106.5 -74t-125.5 -29zM251 51q62 0 103.5 23t82.5 69q-18 45 -21 97q-76 20 -144 20t-107.5 -29t-39.5 -77q0 -47 37.5 -75t88.5 -28zM493 289h333q-7 75 -49.5 124.5t-115.5 49.5
q-66 0 -113 -49t-55 -125z" />
    <glyph glyph-name="ccedilla" unicode="&#xe7;" horiz-adv-x="571" 
d="M268 -155l-75 34l78 114q-95 17 -156 91.5t-61 173.5q0 111 76.5 190.5t188.5 79.5q120 0 207 -92l-51 -54q-74 78 -157 78q-78 0 -131.5 -58.5t-53.5 -143.5q0 -84 54.5 -142.5t135.5 -58.5q86 0 158 77l49 -46q-85 -94 -196 -100z" />
    <glyph glyph-name="egrave" unicode="&#xe8;" horiz-adv-x="592" 
d="M132 227q8 -79 59.5 -125.5t122.5 -46.5q93 0 163 73l48 -43q-87 -97 -213 -97q-109 0 -183.5 75.5t-74.5 194.5q0 113 71 191.5t177 78.5q111 0 176 -78t65 -196q0 -15 -1 -27h-410zM132 289h333q-7 75 -49.5 124.5t-115.5 49.5q-66 0 -113 -49t-55 -125zM276 595
l-113 108l80 37l95 -145h-62z" />
    <glyph glyph-name="eacute" unicode="&#xe9;" horiz-adv-x="592" 
d="M132 227q8 -79 59.5 -125.5t122.5 -46.5q93 0 163 73l48 -43q-87 -97 -213 -97q-109 0 -183.5 75.5t-74.5 194.5q0 113 71 191.5t177 78.5q111 0 176 -78t65 -196q0 -15 -1 -27h-410zM132 289h333q-7 75 -49.5 124.5t-115.5 49.5q-66 0 -113 -49t-55 -125zM254 595
l95 145l80 -37l-113 -108h-62z" />
    <glyph glyph-name="ecircumflex" unicode="&#xea;" horiz-adv-x="592" 
d="M132 227q8 -79 59.5 -125.5t122.5 -46.5q93 0 163 73l48 -43q-87 -97 -213 -97q-109 0 -183.5 75.5t-74.5 194.5q0 113 71 191.5t177 78.5q111 0 176 -78t65 -196q0 -15 -1 -27h-410zM132 289h333q-7 75 -49.5 124.5t-115.5 49.5q-66 0 -113 -49t-55 -125zM159 595
l106 131h68l106 -131h-66l-75 67l-75 -67h-64z" />
    <glyph glyph-name="edieresis" unicode="&#xeb;" horiz-adv-x="592" 
d="M132 227q8 -79 59.5 -125.5t122.5 -46.5q93 0 163 73l48 -43q-87 -97 -213 -97q-109 0 -183.5 75.5t-74.5 194.5q0 113 71 191.5t177 78.5q111 0 176 -78t65 -196q0 -15 -1 -27h-410zM132 289h333q-7 75 -49.5 124.5t-115.5 49.5q-66 0 -113 -49t-55 -125zM166 595v95h90
v-95h-90zM342 595v95h90v-95h-90z" />
    <glyph glyph-name="igrave" unicode="&#xec;" horiz-adv-x="263" 
d="M93 0v517h77v-517h-77zM102 595l-113 108l80 37l95 -145h-62z" />
    <glyph glyph-name="iacute" unicode="&#xed;" horiz-adv-x="263" 
d="M93 0v517h77v-517h-77zM100 595l95 145l80 -37l-113 -108h-62z" />
    <glyph glyph-name="icircumflex" unicode="&#xee;" horiz-adv-x="263" 
d="M93 0v517h77v-517h-77zM-9 595l106 131h68l106 -131h-66l-75 67l-75 -67h-64z" />
    <glyph glyph-name="idieresis" unicode="&#xef;" horiz-adv-x="263" 
d="M93 0v517h77v-517h-77zM-2 595v95h90v-95h-90zM174 595v95h90v-95h-90z" />
    <glyph glyph-name="eth" unicode="&#xf0;" horiz-adv-x="633" 
d="M312 -12q-110 0 -184 75.5t-74 183.5q0 105 69.5 172t167.5 67q84 0 162 -55l-131 184l-128 -63l-36 47l131 61l-50 70h92l26 -39l99 48l35 -47l-102 -47l101 -149q88 -127 88 -245q0 -109 -73.5 -186t-192.5 -77zM317 56q80 0 131 55.5t51 133.5q0 74 -54.5 127
t-135.5 53q-80 0 -128.5 -51.5t-48.5 -131.5q0 -74 53 -130t132 -56z" />
    <glyph glyph-name="ntilde" unicode="&#xf1;" horiz-adv-x="616" 
d="M86 0v517h77v-90q61 101 177 101q92 0 145 -56.5t53 -150.5v-321h-77v302q0 73 -37.5 114.5t-105.5 41.5q-67 0 -111 -45t-44 -117v-296h-77zM195 586l-47 13q15 56 37 80.5t58 24.5q24 0 71 -20t63 -20q19 0 29.5 10.5t22.5 38.5l47 -13q-15 -56 -37 -80.5t-58 -24.5
q-24 0 -71 20t-63 20q-19 0 -29.5 -10.5t-22.5 -38.5z" />
    <glyph glyph-name="ograve" unicode="&#xf2;" horiz-adv-x="646" 
d="M322 -12q-115 0 -191.5 79t-76.5 191q0 111 77.5 190.5t192.5 79.5t192 -79t77 -191q0 -111 -78 -190.5t-193 -79.5zM324 57q83 0 136.5 58t53.5 143q0 84 -55.5 143t-136.5 59q-83 0 -136 -58.5t-53 -143.5q0 -84 55 -142.5t136 -58.5zM292 595l-113 108l80 37l95 -145
h-62z" />
    <glyph glyph-name="oacute" unicode="&#xf3;" horiz-adv-x="646" 
d="M322 -12q-115 0 -191.5 79t-76.5 191q0 111 77.5 190.5t192.5 79.5t192 -79t77 -191q0 -111 -78 -190.5t-193 -79.5zM324 57q83 0 136.5 58t53.5 143q0 84 -55.5 143t-136.5 59q-83 0 -136 -58.5t-53 -143.5q0 -84 55 -142.5t136 -58.5zM293 595l95 145l80 -37l-113 -108
h-62z" />
    <glyph glyph-name="ocircumflex" unicode="&#xf4;" horiz-adv-x="646" 
d="M322 -12q-115 0 -191.5 79t-76.5 191q0 111 77.5 190.5t192.5 79.5t192 -79t77 -191q0 -111 -78 -190.5t-193 -79.5zM324 57q83 0 136.5 58t53.5 143q0 84 -55.5 143t-136.5 59q-83 0 -136 -58.5t-53 -143.5q0 -84 55 -142.5t136 -58.5zM183 595l106 131h68l106 -131h-66
l-75 67l-75 -67h-64z" />
    <glyph glyph-name="otilde" unicode="&#xf5;" horiz-adv-x="646" 
d="M322 -12q-115 0 -191.5 79t-76.5 191q0 111 77.5 190.5t192.5 79.5t192 -79t77 -191q0 -111 -78 -190.5t-193 -79.5zM324 57q83 0 136.5 58t53.5 143q0 84 -55.5 143t-136.5 59q-83 0 -136 -58.5t-53 -143.5q0 -84 55 -142.5t136 -58.5zM206 586l-47 13q15 56 37 80.5
t58 24.5q24 0 71 -20t63 -20q19 0 29.5 10.5t22.5 38.5l47 -13q-15 -56 -37 -80.5t-58 -24.5q-24 0 -71 20t-63 20q-19 0 -29.5 -10.5t-22.5 -38.5z" />
    <glyph glyph-name="odieresis" unicode="&#xf6;" horiz-adv-x="646" 
d="M322 -12q-115 0 -191.5 79t-76.5 191q0 111 77.5 190.5t192.5 79.5t192 -79t77 -191q0 -111 -78 -190.5t-193 -79.5zM324 57q83 0 136.5 58t53.5 143q0 84 -55.5 143t-136.5 59q-83 0 -136 -58.5t-53 -143.5q0 -84 55 -142.5t136 -58.5zM190 595v95h90v-95h-90zM366 595
v95h90v-95h-90z" />
    <glyph glyph-name="divide" unicode="&#xf7;" horiz-adv-x="640" 
d="M275 110v103h89v-103h-89zM89 317v74h462v-74h-462zM275 494v103h89v-103h-89z" />
    <glyph glyph-name="oslash" unicode="&#xf8;" horiz-adv-x="646" 
d="M322 -12q-90 0 -161 53l-45 -46h-77l79 85q-64 75 -64 178q0 111 77.5 190.5t192.5 79.5q93 0 161 -54l45 49h78q-69 -73 -80 -86q65 -75 65 -179q0 -111 -78 -190.5t-193 -79.5zM324 56q83 0 137 58.5t54 143.5q0 68 -39 122l-267 -283q49 -41 115 -41zM170 136l268 283
q-52 42 -116 42q-83 0 -136.5 -59t-53.5 -144q0 -67 38 -122z" />
    <glyph glyph-name="ugrave" unicode="&#xf9;" horiz-adv-x="616" 
d="M276 -11q-92 0 -145 56.5t-53 150.5v321h77v-302q0 -73 37.5 -114.5t105.5 -41.5q67 0 111 45t44 117v296h76v-517h-76v90q-63 -101 -177 -101zM284 591l-113 108l80 37l95 -145h-62z" />
    <glyph glyph-name="uacute" unicode="&#xfa;" horiz-adv-x="616" 
d="M276 -11q-92 0 -145 56.5t-53 150.5v321h77v-302q0 -73 37.5 -114.5t105.5 -41.5q67 0 111 45t44 117v296h76v-517h-76v90q-63 -101 -177 -101zM266 591l95 145l80 -37l-113 -108h-62z" />
    <glyph glyph-name="ucircumflex" unicode="&#xfb;" horiz-adv-x="616" 
d="M276 -11q-92 0 -145 56.5t-53 150.5v321h77v-302q0 -73 37.5 -114.5t105.5 -41.5q67 0 111 45t44 117v296h76v-517h-76v90q-63 -101 -177 -101zM169 595l106 131h68l106 -131h-66l-75 67l-75 -67h-64z" />
    <glyph glyph-name="udieresis" unicode="&#xfc;" horiz-adv-x="616" 
d="M276 -11q-92 0 -145 56.5t-53 150.5v321h77v-302q0 -73 37.5 -114.5t105.5 -41.5q67 0 111 45t44 117v296h76v-517h-76v90q-63 -101 -177 -101zM176 595v95h90v-95h-90zM352 595v95h90v-95h-90z" />
    <glyph glyph-name="yacute" unicode="&#xfd;" horiz-adv-x="591" 
d="M166 -163q-56 0 -110 26l26 61q37 -19 81 -19q35 0 59 21.5t47 75.5l-235 515h85l188 -431l166 431h82l-217 -534q-33 -79 -73 -112.5t-99 -33.5zM267 591l95 145l80 -37l-113 -108h-62z" />
    <glyph glyph-name="thorn" unicode="&#xfe;" horiz-adv-x="664" 
d="M86 -160v890h77v-317q78 115 198 115q99 0 173 -73.5t74 -196.5q0 -121 -74 -195t-173 -74q-122 0 -198 110v-259h-77zM347 58q78 0 130 54.5t52 146.5q0 89 -53 144.5t-129 55.5q-75 0 -131 -57t-56 -144t56 -143.5t131 -56.5z" />
    <glyph glyph-name="ydieresis" unicode="&#xff;" horiz-adv-x="591" 
d="M166 -163q-56 0 -110 26l26 61q37 -19 81 -19q35 0 59 21.5t47 75.5l-235 515h85l188 -431l166 431h82l-217 -534q-33 -79 -73 -112.5t-99 -33.5zM163 595v95h90v-95h-90zM339 595v95h90v-95h-90z" />
    <glyph glyph-name="dotlessi" unicode="&#x131;" horiz-adv-x="263" 
d="M93 0v517h77v-517h-77z" />
    <glyph glyph-name="Lslash" unicode="&#x141;" horiz-adv-x="649" 
d="M129 0v301l-75 -22v73l75 23v325h78v-301l216 66v-74l-216 -65v-253h395v-73h-473z" />
    <glyph glyph-name="lslash" unicode="&#x142;" horiz-adv-x="323" 
d="M124 0v321l-76 -24v75l76 23v335h76v-312l76 24v-75l-76 -24v-343h-76z" />
    <glyph glyph-name="OE" unicode="&#x152;" horiz-adv-x="1131" 
d="M440 0q-164 0 -268 99.5t-104 250.5q0 150 104.5 250t267.5 100h626v-72h-409v-239h364v-72h-364v-245h414v-72h-631zM440 72h138v556h-138q-130 0 -210 -79t-80 -199q0 -119 80 -198.5t210 -79.5z" />
    <glyph glyph-name="oe" unicode="&#x153;" horiz-adv-x="1049" 
d="M319 -12q-112 0 -188.5 79t-76.5 191q0 111 77.5 190.5t190.5 79.5q74 0 134 -37.5t92 -99.5q30 63 86 100t126 37q111 0 175.5 -78t64.5 -196q0 -15 -1 -27h-410q8 -79 59.5 -125.5t122.5 -46.5q93 0 163 73l48 -43q-85 -97 -212 -97q-72 0 -131.5 37t-91.5 102
q-32 -63 -92.5 -101t-135.5 -38zM323 57q82 0 135 58t53 143q0 84 -55 143t-135 59q-82 0 -135 -58.5t-53 -143.5q0 -84 55 -142.5t135 -58.5zM589 289h333q-7 75 -49.5 124.5t-115.5 49.5q-66 0 -113 -49t-55 -125z" />
    <glyph glyph-name="Scaron" unicode="&#x160;" horiz-adv-x="640" 
d="M339 -10q-161 0 -286 112l49 58q56 -51 112.5 -75t127.5 -24q70 0 113 33.5t43 87.5q0 51 -38 81t-144 52q-125 27 -180 73t-55 131q0 83 65 137t165 54q139 0 246 -86l-46 -61q-93 76 -202 76q-67 0 -108 -32.5t-41 -82.5q0 -52 39.5 -82t150.5 -54q119 -26 173.5 -72.5
t54.5 -127.5q0 -89 -67 -143.5t-172 -54.5zM290 762l-106 131h66l75 -67l75 67h64l-106 -131h-68z" />
    <glyph glyph-name="scaron" unicode="&#x161;" horiz-adv-x="498" 
d="M257 -10q-56 0 -113.5 20.5t-100.5 55.5l39 55q88 -66 179 -66q47 0 77 23t30 61q0 35 -32.5 54t-96.5 37q-39 11 -62 20t-52 25.5t-43 42t-14 60.5q0 66 49.5 107t126.5 41q100 0 186 -57l-35 -58q-77 50 -153 50q-45 0 -72.5 -21.5t-27.5 -55.5q0 -14 8 -26t18 -20
t31.5 -17t34.5 -13t41 -13q37 -11 61 -21t51 -27t40.5 -42.5t13.5 -59.5q0 -72 -52 -113.5t-132 -41.5zM218 595l-106 131h66l75 -67l75 67h64l-106 -131h-68z" />
    <glyph glyph-name="Ydieresis" unicode="&#x178;" horiz-adv-x="716" 
d="M318 0v277l-291 423h96l236 -350l238 350h92l-291 -422v-278h-80zM225 759v95h90v-95h-90zM401 759v95h90v-95h-90z" />
    <glyph glyph-name="Zcaron" unicode="&#x17d;" horiz-adv-x="693" 
d="M67 0v53l453 576h-438v71h546v-53l-454 -576h454v-71h-561zM317 762l-106 131h66l75 -67l75 67h64l-106 -131h-68z" />
    <glyph glyph-name="zcaron" unicode="&#x17e;" horiz-adv-x="556" 
d="M56 0v49l343 403h-331v65h436v-49l-344 -403h344v-65h-448zM253 595l-106 131h66l75 -67l75 67h64l-106 -131h-68z" />
    <glyph glyph-name="florin" unicode="&#x192;" horiz-adv-x="514" 
d="M93 -5q-24 0 -52 4v66q19 -4 44 -4q64 0 78 76l44 236h-98v67h109l23 119q14 76 51 111t105 35q48 0 81 -11v-66q-40 10 -69 10q-39 0 -60 -21t-30 -69l-20 -108h144v-67h-156l-45 -244q-13 -69 -49 -101.5t-100 -32.5z" />
    <glyph glyph-name="circumflex" unicode="&#x2c6;" 
d="M110 595l106 131h68l106 -131h-66l-75 67l-75 -67h-64z" />
    <glyph glyph-name="caron" unicode="&#x2c7;" 
d="M216 595l-106 131h66l75 -67l75 67h64l-106 -131h-68z" />
    <glyph glyph-name="breve" unicode="&#x2d8;" 
d="M250 593q-63 0 -103.5 35.5t-44.5 97.5h56q20 -69 92 -69t92 69h56q-4 -62 -44.5 -97.5t-103.5 -35.5z" />
    <glyph glyph-name="dotaccent" unicode="&#x2d9;" 
d="M203 595v96h94v-96h-94z" />
    <glyph glyph-name="ring" unicode="&#x2da;" 
d="M250 593q-42 0 -73 29.5t-31 71.5q0 40 31 69.5t73 29.5t73 -29.5t31 -71.5q0 -40 -31 -69.5t-73 -29.5zM250 631q25 0 43.5 18.5t18.5 44.5q0 25 -18.5 43t-43.5 18q-26 0 -44 -18.5t-18 -44.5q0 -25 18.5 -43t43.5 -18z" />
    <glyph glyph-name="ogonek" unicode="&#x2db;" 
d="M360 -164q-85 -4 -131 25.5t-46 82.5q0 33 14 66h60q-6 -26 -6 -51q0 -76 109 -82v-41z" />
    <glyph glyph-name="tilde" unicode="&#x2dc;" 
d="M133 586l-47 13q15 56 37 80.5t58 24.5q24 0 71 -20t63 -20q19 0 29.5 10.5t22.5 38.5l47 -13q-15 -56 -37 -80.5t-58 -24.5q-24 0 -71 20t-63 20q-19 0 -29.5 -10.5t-22.5 -38.5z" />
    <glyph glyph-name="hungarumlaut" unicode="&#x2dd;" 
d="M84 595l95 145l75 -37l-108 -108h-62zM248 595l95 145l75 -37l-109 -108h-61z" />
    <glyph glyph-name="Omega" unicode="&#x3a9;" horiz-adv-x="789" 
d="M78 0v66h192v76q-89 24 -140.5 99t-51.5 170q0 131 92.5 214t224.5 83q131 0 223 -83.5t92 -212.5q0 -95 -51 -170.5t-141 -99.5v-76h192v-66h-252v189q85 14 129.5 73.5t44.5 146.5q0 100 -68.5 165t-170.5 65q-101 0 -169 -65.5t-68 -164.5q0 -85 46 -147.5t128 -72.5
v-189h-252z" />
    <glyph glyph-name="pi" unicode="&#x3c0;" 
d="M0 0v700h500v-700h-500zM81 49h339l-170 255zM49 96l171 254l-171 254v-508zM450 96v508l-171 -254zM250 395l170 255h-339z" />
    <glyph glyph-name="afii10023" unicode="&#x401;" horiz-adv-x="670" 
d="M99 0v700h506v-72h-427v-239h382v-72h-382v-245h432v-72h-511zM222 762v95h90v-95h-90zM398 762v95h90v-95h-90z" />
    <glyph glyph-name="afii10051" unicode="&#x402;" horiz-adv-x="882" 
d="M564 -23q-52 0 -103 20l18 68q33 -15 77 -15q63 0 111 42t48 129q0 74 -44 120t-117 46q-123 0 -219 -86v-301h-80v628h-207v72h555v-72h-268v-247q105 80 228 80q105 0 169.5 -63t64.5 -176q0 -115 -64.5 -180t-168.5 -65z" />
    <glyph glyph-name="afii10052" unicode="&#x403;" horiz-adv-x="589" 
d="M99 0v700h447v-72h-368v-628h-79zM257 762l95 145l80 -37l-113 -108h-62z" />
    <glyph glyph-name="afii10053" unicode="&#x404;" horiz-adv-x="739" 
d="M419 -12q-151 0 -251 104.5t-100 257.5q0 151 101 256.5t253 105.5q88 0 148.5 -29t120.5 -86l-50 -54q-102 97 -220 97q-106 0 -180.5 -71t-87.5 -180h352v-72h-353q11 -110 87 -183.5t182 -73.5q67 0 117 25t105 78l58 -52q-59 -60 -125.5 -91.5t-156.5 -31.5z" />
    <glyph glyph-name="afii10054" unicode="&#x405;" horiz-adv-x="640" 
d="M339 -10q-161 0 -286 112l49 58q56 -51 112.5 -75t127.5 -24q70 0 113 33.5t43 87.5q0 51 -38 81t-144 52q-125 27 -180 73t-55 131q0 83 65 137t165 54q139 0 246 -86l-46 -61q-93 76 -202 76q-67 0 -108 -32.5t-41 -82.5q0 -52 39.5 -82t150.5 -54q119 -26 173.5 -72.5
t54.5 -127.5q0 -89 -67 -143.5t-172 -54.5z" />
    <glyph glyph-name="afii10055" unicode="&#x406;" horiz-adv-x="291" 
d="M106 0v700h79v-700h-79z" />
    <glyph glyph-name="afii10056" unicode="&#x407;" horiz-adv-x="291" 
d="M106 0v700h79v-700h-79zM13 762v95h90v-95h-90zM189 762v95h90v-95h-90z" />
    <glyph glyph-name="afii10057" unicode="&#x408;" horiz-adv-x="553" 
d="M247 -10q-140 0 -216 124l57 49q34 -51 70.5 -75.5t89.5 -24.5q61 0 99 43.5t38 124.5v469h80v-468q0 -120 -64 -184q-60 -58 -154 -58z" />
    <glyph glyph-name="afii10058" unicode="&#x409;" horiz-adv-x="1155" 
d="M86 -8q-47 0 -91 17l16 64q22 -10 62 -10q20 0 36 6.5t38 36t36 81t24.5 151t10.5 235.5v127h443v-271h177q121 0 196.5 -51t75.5 -155q0 -103 -70.5 -163t-189.5 -60h-268v628h-288v-76q0 -142 -11.5 -246t-30 -163.5t-47 -94.5t-56 -45.5t-63.5 -10.5zM661 72h187
q86 0 134.5 38t48.5 111q0 67 -49.5 102t-138.5 35h-182v-286z" />
    <glyph glyph-name="afii10059" unicode="&#x40a;" horiz-adv-x="1154" 
d="M99 0v700h79v-290h403v290h80v-290h196q111 0 181.5 -49.5t70.5 -148.5q0 -97 -66 -154.5t-180 -57.5h-282v337h-403v-337h-79zM661 72h192q85 0 130 35.5t45 104.5q0 63 -46 96t-133 33h-188v-269z" />
    <glyph glyph-name="afii10060" unicode="&#x40b;" horiz-adv-x="882" 
d="M256 0v628h-208v72h554v-72h-267v-258q106 81 228 81q105 0 169.5 -54t64.5 -153v-244h-79v228q0 67 -44 108t-118 41q-120 0 -221 -90v-287h-79z" />
    <glyph glyph-name="afii10061" unicode="&#x40c;" horiz-adv-x="719" 
d="M99 0v700h79v-418l402 418h102l-300 -306l313 -394h-99l-269 339l-149 -151v-188h-79zM312 762l95 145l80 -37l-113 -108h-62z" />
    <glyph glyph-name="afii10062" unicode="&#x40e;" horiz-adv-x="729" 
d="M202 -12q-62 0 -118 29l31 63q39 -21 89 -21q85 0 140 105l-308 536h90l258 -457l223 457h86l-277 -553q-79 -159 -214 -159zM384 758q-56 0 -95 34.5t-48 88.5l54 11q20 -70 89 -70t89 70l54 -11q-9 -54 -48 -88.5t-95 -34.5z" />
    <glyph glyph-name="afii10145" unicode="&#x40f;" horiz-adv-x="750" 
d="M339 -156v156h-240v700h79v-628h394v628h79v-700h-233v-156h-79z" />
    <glyph glyph-name="afii10017" unicode="&#x410;" horiz-adv-x="790" 
d="M39 0l319 705h74l319 -705h-85l-82 185h-381l-83 -185h-81zM234 256h319l-159 357z" />
    <glyph glyph-name="afii10018" unicode="&#x411;" horiz-adv-x="708" 
d="M99 0v700h502v-72h-423v-215h207q118 0 192 -51.5t74 -152.5t-69.5 -155t-188.5 -54h-294zM178 72h209q185 0 185 141q0 65 -50 97.5t-139 32.5h-205v-271z" />
    <glyph glyph-name="afii10019" unicode="&#x412;" horiz-adv-x="722" 
d="M99 0v700h298q123 0 183 -62q45 -47 45 -114q0 -114 -111 -162q150 -45 150 -171q0 -89 -69 -140t-185 -51h-311zM177 71h235q80 0 126 33.5t46 93.5q0 58 -47.5 89t-138.5 31h-221v-247zM177 388h207q73 0 117 33t44 94q0 53 -40.5 83.5t-114.5 30.5h-213v-241z" />
    <glyph glyph-name="afii10020" unicode="&#x413;" horiz-adv-x="589" 
d="M99 0v700h447v-72h-368v-628h-79z" />
    <glyph glyph-name="afii10021" unicode="&#x414;" horiz-adv-x="754" 
d="M10 -156v228h72q106 169 106 506v122h458v-628h91l-12 -228h-66v156h-568l-14 -156h-67zM171 72h396v556h-303v-91q0 -138 -25 -266t-68 -199z" />
    <glyph glyph-name="afii10022" unicode="&#x415;" horiz-adv-x="670" 
d="M99 0v700h506v-72h-427v-239h382v-72h-382v-245h432v-72h-511z" />
    <glyph glyph-name="afii10024" unicode="&#x416;" horiz-adv-x="1089" 
d="M24 0l288 400l-270 300h98l365 -413v413h79v-413l365 413h98l-270 -300l288 -400h-98l-245 341l-138 -153v-188h-79v188l-139 153l-244 -341h-98z" />
    <glyph glyph-name="afii10025" unicode="&#x417;" horiz-adv-x="636" 
d="M331 -12q-168 0 -292 113l47 55q106 -100 246 -100q67 0 115 37.5t48 97.5q0 65 -52 97t-137 32h-77v65h77q76 0 123.5 35.5t47.5 96.5q0 54 -44.5 89.5t-113.5 35.5q-118 0 -206 -79l-46 55q55 47 114.5 70t139.5 23q104 0 170 -53t66 -134q0 -119 -128 -165
q67 -20 107 -63t40 -109q0 -85 -68.5 -142t-176.5 -57z" />
    <glyph glyph-name="afii10026" unicode="&#x418;" horiz-adv-x="770" 
d="M99 0v700h79v-581l418 581h75v-700h-78v581l-417 -581h-77z" />
    <glyph glyph-name="afii10027" unicode="&#x419;" horiz-adv-x="770" 
d="M99 0v700h79v-581l418 581h75v-700h-78v581l-417 -581h-77zM390 758q-56 0 -95 34.5t-48 88.5l54 11q20 -70 89 -70t89 70l54 -11q-9 -54 -48 -88.5t-95 -34.5z" />
    <glyph glyph-name="afii10028" unicode="&#x41a;" horiz-adv-x="719" 
d="M99 0v700h79v-418l402 418h102l-300 -306l313 -394h-99l-269 339l-149 -151v-188h-79z" />
    <glyph glyph-name="afii10029" unicode="&#x41b;" horiz-adv-x="770" 
d="M86 -8q-47 0 -91 17l16 64q22 -10 62 -10q20 0 36 6.5t38 36t36 81t24.5 151t10.5 235.5v127h453v-700h-79v628h-298v-76q0 -142 -11.5 -246t-30 -163.5t-47 -94.5t-56 -45.5t-63.5 -10.5z" />
    <glyph glyph-name="afii10030" unicode="&#x41c;" horiz-adv-x="868" 
d="M99 0v700h80l255 -382l255 382h80v-700h-79v567l-255 -375h-4l-255 374v-566h-77z" />
    <glyph glyph-name="afii10031" unicode="&#x41d;" horiz-adv-x="760" 
d="M99 0v700h79v-311h404v311h79v-700h-79v315h-404v-315h-79z" />
    <glyph glyph-name="afii10032" unicode="&#x41e;" horiz-adv-x="850" 
d="M424 -12q-156 0 -256 106t-100 256q0 149 101 255.5t257 106.5t256 -106t100 -256q0 -149 -101 -255.5t-257 -106.5zM426 61q119 0 196.5 83.5t77.5 205.5q0 121 -78.5 205t-197.5 84t-196.5 -83.5t-77.5 -205.5q0 -121 78.5 -205t197.5 -84z" />
    <glyph glyph-name="afii10033" unicode="&#x41f;" horiz-adv-x="750" 
d="M99 0v700h552v-700h-79v628h-394v-628h-79z" />
    <glyph glyph-name="afii10034" unicode="&#x420;" horiz-adv-x="668" 
d="M99 0v700h262q120 0 191 -60t71 -164q0 -109 -78.5 -169t-196.5 -60h-170v-247h-79zM178 319h173q87 0 139.5 42.5t52.5 113.5q0 73 -50.5 112.5t-137.5 39.5h-177v-308z" />
    <glyph glyph-name="afii10035" unicode="&#x421;" horiz-adv-x="738" 
d="M419 -12q-151 0 -251 104.5t-100 257.5q0 151 101 256.5t253 105.5q88 0 150 -28.5t121 -84.5l-52 -56q-101 96 -220 96q-116 0 -193.5 -83t-77.5 -206q0 -122 78 -205.5t193 -83.5q68 0 120 25t106 76l52 -55q-59 -59 -124 -89t-156 -30z" />
    <glyph glyph-name="afii10036" unicode="&#x422;" horiz-adv-x="648" 
d="M284 0v628h-235v72h550v-72h-235v-628h-80z" />
    <glyph glyph-name="afii10037" unicode="&#x423;" horiz-adv-x="729" 
d="M202 -12q-62 0 -118 29l31 63q39 -21 89 -21q85 0 140 105l-308 536h90l258 -457l223 457h86l-277 -553q-79 -159 -214 -159z" />
    <glyph glyph-name="afii10038" unicode="&#x424;" horiz-adv-x="897" 
d="M409 -26v77q-167 0 -260.5 82t-93.5 220t93.5 219.5t260.5 81.5v69h79v-69q167 0 260.5 -81.5t93.5 -219.5t-93.5 -220t-260.5 -82v-77h-79zM409 123v459q-130 0 -201 -59.5t-71 -170.5t71 -170t201 -59zM488 123q130 0 201 59t71 170t-71 170.5t-201 59.5v-459z" />
    <glyph glyph-name="afii10039" unicode="&#x425;" horiz-adv-x="725" 
d="M46 0l269 357l-259 343h93l215 -286l213 286h92l-259 -342l269 -358h-94l-224 301l-224 -301h-91z" />
    <glyph glyph-name="afii10040" unicode="&#x426;" horiz-adv-x="765" 
d="M670 -156v156h-571v700h79v-628h400v628h79v-628h91l-12 -228h-66z" />
    <glyph glyph-name="afii10041" unicode="&#x427;" horiz-adv-x="695" 
d="M517 0v299q-46 -27 -108.5 -48t-109.5 -21q-104 0 -165 53t-61 153v264h79v-251q0 -67 40 -106t113 -39q97 0 212 68v328h79v-700h-79z" />
    <glyph glyph-name="afii10042" unicode="&#x428;" horiz-adv-x="1103" 
d="M99 0v700h79v-628h334v628h79v-628h334v628h79v-700h-905z" />
    <glyph glyph-name="afii10043" unicode="&#x429;" horiz-adv-x="1112" 
d="M1017 -156v156h-918v700h79v-628h334v628h79v-628h334v628h79v-628h91l-12 -228h-66z" />
    <glyph glyph-name="afii10044" unicode="&#x42a;" horiz-adv-x="801" 
d="M228 0v628h-184v72h263v-271h177q121 0 196.5 -51t75.5 -155q0 -103 -70.5 -163t-189.5 -60h-268zM307 72h187q86 0 134.5 38t48.5 111q0 67 -49.5 102t-138.5 35h-182v-286z" />
    <glyph glyph-name="afii10045" unicode="&#x42b;" horiz-adv-x="895" 
d="M99 0v700h79v-271h177q121 0 196.5 -51t75.5 -155q0 -103 -70.5 -163t-189.5 -60h-268zM178 72h187q86 0 134.5 38t48.5 111q0 67 -49.5 102t-138.5 35h-182v-286zM717 0v700h79v-700h-79z" />
    <glyph glyph-name="afii10046" unicode="&#x42c;" horiz-adv-x="672" 
d="M99 0v700h79v-271h177q121 0 196.5 -51t75.5 -155q0 -103 -70.5 -163t-189.5 -60h-268zM178 72h187q86 0 134.5 38t48.5 111q0 67 -49.5 102t-138.5 35h-182v-286z" />
    <glyph glyph-name="afii10047" unicode="&#x42d;" horiz-adv-x="739" 
d="M319 -12q-90 0 -156.5 31.5t-125.5 91.5l58 52q55 -53 105 -78t117 -25q106 0 182 73.5t87 183.5h-353v72h352q-13 109 -87.5 180t-180.5 71q-118 0 -220 -97l-50 54q60 57 120.5 86t148.5 29q152 0 253 -105.5t101 -256.5q0 -153 -100 -257.5t-251 -104.5z" />
    <glyph glyph-name="afii10048" unicode="&#x42e;" horiz-adv-x="1050" 
d="M649 -12q-138 0 -228 92.5t-101 235.5h-142v-316h-79v700h79v-312h142q12 140 103.5 232t227.5 92q146 0 238.5 -103t92.5 -258t-93.5 -259t-239.5 -104zM651 60q109 0 179.5 82.5t70.5 207.5q0 123 -71.5 206.5t-180.5 83.5t-179 -82.5t-70 -207.5q0 -123 71 -206.5
t180 -83.5z" />
    <glyph glyph-name="afii10049" unicode="&#x42f;" horiz-adv-x="725" 
d="M42 0l219 281q-87 16 -139 69.5t-52 138.5q0 89 53 140q71 71 204 71h299v-700h-79v268h-201l-208 -268h-96zM332 335h215v294h-215q-86 0 -134.5 -39.5t-48.5 -106.5t51 -107.5t132 -40.5z" />
    <glyph glyph-name="afii10065" unicode="&#x430;" horiz-adv-x="579" 
d="M240 -11q-79 0 -136 43t-57 120q0 81 60 125t161 44q80 0 158 -22v16q0 68 -40 104t-113 36q-76 0 -157 -37l-23 63q96 44 188 44q110 0 167 -57q54 -54 54 -152v-316h-76v77q-69 -88 -186 -88zM255 51q72 0 122 39t50 100v48q-76 22 -151 22q-71 0 -111 -28.5t-40 -77.5
q0 -47 37.5 -75t92.5 -28z" />
    <glyph glyph-name="afii10066" unicode="&#x431;" horiz-adv-x="647" 
d="M329 -12q-119 0 -190.5 78.5t-71.5 212.5q0 49 2 83.5t8 76.5t19 72t33.5 59t53.5 49t77 30l288 68l15 -65l-280 -69q-78 -20 -111.5 -63.5t-39.5 -120.5q66 112 214 112q102 0 175 -75.5t73 -181.5q0 -110 -76 -188t-189 -78zM331 57q79 0 131 56.5t52 138.5
q0 81 -53.5 138t-131.5 57q-79 0 -131 -56.5t-52 -138.5q0 -81 53.5 -138t131.5 -57z" />
    <glyph glyph-name="afii10067" unicode="&#x432;" horiz-adv-x="586" 
d="M86 0v517h250q77 0 123 -35t46 -94q0 -83 -86 -119q114 -31 114 -128q0 -65 -51 -103t-137 -38h-259zM163 66h172q55 0 87 23t32 64q0 38 -33.5 59t-95.5 21h-162v-167zM163 295h159q48 0 76.5 21.5t28.5 61.5q0 33 -27 53t-76 20h-161v-156z" />
    <glyph glyph-name="afii10068" unicode="&#x433;" horiz-adv-x="463" 
d="M86 0v517h351v-68h-274v-449h-77z" />
    <glyph glyph-name="afii10069" unicode="&#x434;" horiz-adv-x="601" 
d="M10 -129v197h56q69 126 69 359v90h368v-449h78l-12 -197h-64v129h-418l-14 -129h-63zM148 68h278v381h-217v-72q0 -195 -61 -309z" />
    <glyph glyph-name="afii10070" unicode="&#x435;" horiz-adv-x="592" 
d="M312 -12q-109 0 -183.5 75.5t-74.5 194.5q0 113 71 191.5t177 78.5q111 0 176 -78t65 -196q0 -15 -1 -27h-410q8 -79 59.5 -125.5t122.5 -46.5q93 0 163 73l48 -43q-87 -97 -213 -97zM132 289h333q-7 75 -49.5 124.5t-115.5 49.5q-66 0 -113 -49t-55 -125z" />
    <glyph glyph-name="afii10072" unicode="&#x436;" horiz-adv-x="851" 
d="M20 0l212 296l-201 221h93l263 -300v300h77v-300l263 300h93l-201 -221l212 -296h-90l-172 241l-105 -115v-126h-77v126l-105 115l-172 -241h-90z" />
    <glyph glyph-name="afii10073" unicode="&#x437;" horiz-adv-x="512" 
d="M250 -12q-119 0 -214 77l39 57q79 -67 173 -67q53 0 90.5 24.5t37.5 67.5q0 40 -34 62.5t-96 22.5h-69v63h70q51 0 83 24.5t32 64.5q0 35 -31.5 56t-80.5 21q-92 0 -157 -52l-38 54q84 65 200 65q86 0 136.5 -38.5t50.5 -99.5q0 -85 -83 -119q96 -34 96 -127
q0 -65 -56 -110.5t-149 -45.5z" />
    <glyph glyph-name="afii10074" unicode="&#x438;" horiz-adv-x="631" 
d="M86 0v517h77v-409l307 409h75v-517h-77v409l-308 -409h-74z" />
    <glyph glyph-name="afii10075" unicode="&#x439;" horiz-adv-x="631" 
d="M86 0v517h77v-409l307 409h75v-517h-77v409l-308 -409h-74zM313 591q-55 0 -93.5 34t-47.5 88l53 11q20 -70 88 -70t88 70l53 -11q-9 -54 -47.5 -88t-93.5 -34z" />
    <glyph glyph-name="afii10076" unicode="&#x43a;" horiz-adv-x="567" 
d="M86 0v517h77v-298l283 298h95l-216 -224l222 -293h-91l-184 237l-109 -112v-125h-77z" />
    <glyph glyph-name="afii10077" unicode="&#x43b;" horiz-adv-x="611" 
d="M61 -8q-30 0 -62 8l9 66q23 -7 37 -7q22 0 36 5.5t30.5 29t25.5 66.5t15.5 122t6.5 192v43h366v-517h-77v449h-216v-12q0 -118 -9 -201t-22.5 -130t-37.5 -73t-46.5 -33.5t-55.5 -7.5z" />
    <glyph glyph-name="afii10078" unicode="&#x43c;" horiz-adv-x="705" 
d="M86 0v517h73l193 -272l193 272h74v-517h-78v394l-191 -262l-189 262v-394h-75z" />
    <glyph glyph-name="afii10079" unicode="&#x43d;" horiz-adv-x="624" 
d="M86 0v517h77v-223h298v223h77v-517h-77v226h-298v-226h-77z" />
    <glyph glyph-name="afii10080" unicode="&#x43e;" horiz-adv-x="646" 
d="M322 -12q-115 0 -191.5 79t-76.5 191q0 111 77.5 190.5t192.5 79.5t192 -79t77 -191q0 -111 -78 -190.5t-193 -79.5zM324 57q83 0 136.5 58t53.5 143q0 84 -55.5 143t-136.5 59q-83 0 -136 -58.5t-53 -143.5q0 -84 55 -142.5t136 -58.5z" />
    <glyph glyph-name="afii10081" unicode="&#x43f;" horiz-adv-x="620" 
d="M86 0v517h448v-517h-77v449h-294v-449h-77z" />
    <glyph glyph-name="afii10082" unicode="&#x440;" horiz-adv-x="664" 
d="M86 -160v677h77v-104q78 115 198 115q99 0 173 -73.5t74 -196.5q0 -121 -74 -195t-173 -74q-122 0 -198 110v-259h-77zM347 58q78 0 130 54.5t52 146.5q0 89 -53 144.5t-129 55.5q-75 0 -131 -57t-56 -144t56 -143.5t131 -56.5z" />
    <glyph glyph-name="afii10083" unicode="&#x441;" horiz-adv-x="571" 
d="M319 -12q-112 0 -188.5 79.5t-76.5 190.5t76.5 190.5t188.5 79.5q120 0 207 -92l-49 -52q-72 76 -159 76q-78 0 -131.5 -58.5t-53.5 -143.5q0 -84 54.5 -142.5t135.5 -58.5q83 0 156 78l51 -47q-90 -100 -211 -100z" />
    <glyph glyph-name="afii10084" unicode="&#x442;" 
d="M211 0v449h-185v68h448v-68h-185v-449h-78z" />
    <glyph glyph-name="afii10085" unicode="&#x443;" horiz-adv-x="591" 
d="M166 -163q-56 0 -110 26l26 61q37 -19 81 -19q35 0 59 21.5t47 75.5l-235 515h85l188 -431l166 431h82l-217 -534q-33 -79 -73 -112.5t-99 -33.5z" />
    <glyph glyph-name="afii10086" unicode="&#x444;" horiz-adv-x="873" 
d="M397 -160v202q-62 -53 -129 -53q-94 0 -152 72.5t-58 198.5q0 124 58 196t152 72q67 0 129 -56v228h78v-228q62 56 129 56q95 0 153 -72.5t58 -197.5q0 -124 -58.5 -196.5t-152.5 -72.5q-43 0 -70.5 13.5t-58.5 39.5v-202h-78zM284 57q65 0 113 51v300q-48 51 -113 51
q-72 0 -109 -54t-37 -149q0 -199 146 -199zM589 57q146 0 146 201q0 94 -37 147.5t-109 53.5q-65 0 -114 -51v-300q49 -51 114 -51z" />
    <glyph glyph-name="afii10087" unicode="&#x445;" horiz-adv-x="574" 
d="M39 0l203 263l-195 254h88l153 -200l153 200h86l-196 -252l204 -265h-89l-160 211l-161 -211h-86z" />
    <glyph glyph-name="afii10088" unicode="&#x446;" horiz-adv-x="628" 
d="M532 -129v129h-446v517h77v-449h290v449h77v-449h78l-12 -197h-64z" />
    <glyph glyph-name="afii10089" unicode="&#x447;" horiz-adv-x="577" 
d="M414 0v213q-31 -18 -81 -32.5t-92 -14.5q-78 0 -124.5 40t-46.5 115v196h77v-185q0 -46 27.5 -72.5t76.5 -26.5q92 0 163 49v235h77v-517h-77z" />
    <glyph glyph-name="afii10090" unicode="&#x448;" horiz-adv-x="908" 
d="M86 0v517h77v-449h252v449h77v-449h252v449h78v-517h-736z" />
    <glyph glyph-name="afii10091" unicode="&#x449;" horiz-adv-x="920" 
d="M824 -129v129h-738v517h77v-449h252v449h77v-449h252v449h78v-449h78l-12 -197h-64z" />
    <glyph glyph-name="afii10092" unicode="&#x44a;" horiz-adv-x="628" 
d="M176 0v449h-156v68h233v-194h138q90 0 147 -38.5t57 -116.5q0 -77 -53 -122.5t-142 -45.5h-224zM253 68h140q59 0 91.5 25t32.5 73q0 44 -33.5 67.5t-93.5 23.5h-137v-189z" />
    <glyph glyph-name="afii10093" unicode="&#x44b;" horiz-adv-x="761" 
d="M86 0v517h77v-194h138q90 0 147 -38.5t57 -116.5q0 -77 -53 -122.5t-142 -45.5h-224zM163 68h140q59 0 91.5 25t32.5 73q0 44 -33.5 67.5t-93.5 23.5h-137v-189zM598 0v517h77v-517h-77z" />
    <glyph glyph-name="afii10094" unicode="&#x44c;" horiz-adv-x="538" 
d="M86 0v517h77v-194h138q90 0 147 -38.5t57 -116.5q0 -77 -53 -122.5t-142 -45.5h-224zM163 68h140q59 0 91.5 25t32.5 73q0 44 -33.5 67.5t-93.5 23.5h-137v-189z" />
    <glyph glyph-name="afii10095" unicode="&#x44d;" horiz-adv-x="571" 
d="M252 -12q-71 0 -120.5 25t-91.5 75l51 48q74 -81 156 -81q74 0 128 50t62 123h-236v65h235q-8 70 -60.5 119t-124.5 49q-88 0 -160 -77l-45 50q84 94 210 94q112 0 186.5 -80t74.5 -192q0 -110 -77 -189t-188 -79z" />
    <glyph glyph-name="afii10096" unicode="&#x44e;" horiz-adv-x="840" 
d="M530 -12q-106 0 -174 68t-78 171h-115v-227h-77v517h77v-225h115q12 101 80.5 168.5t173.5 67.5q114 0 184.5 -78t70.5 -192q0 -112 -71 -191t-186 -79zM532 57q81 0 128 57.5t47 143.5t-49 143.5t-128 57.5q-80 0 -127 -57.5t-47 -143.5t48.5 -143.5t127.5 -57.5z" />
    <glyph glyph-name="afii10097" unicode="&#x44f;" horiz-adv-x="584" 
d="M40 0l158 200q-61 14 -99.5 55t-38.5 101q0 72 52 116.5t143 44.5h243v-517h-77v188h-143q-9 -12 -62 -82t-81 -106h-95zM261 253h160v196h-162q-57 0 -89.5 -25.5t-32.5 -70.5q0 -46 34.5 -73t89.5 -27z" />
    <glyph glyph-name="afii10071" unicode="&#x451;" horiz-adv-x="592" 
d="M312 -12q-109 0 -183.5 75.5t-74.5 194.5q0 113 71 191.5t177 78.5q111 0 176 -78t65 -196q0 -15 -1 -27h-410q8 -79 59.5 -125.5t122.5 -46.5q93 0 163 73l48 -43q-87 -97 -213 -97zM132 289h333q-7 75 -49.5 124.5t-115.5 49.5q-66 0 -113 -49t-55 -125zM163 595v95h90
v-95h-90zM339 595v95h90v-95h-90z" />
    <glyph glyph-name="afii10099" unicode="&#x452;" horiz-adv-x="616" 
d="M343 -12q-54 0 -102 20l15 65q33 -16 73 -16q59 0 98 43.5t39 113.5v77q0 72 -38.5 114.5t-106.5 42.5q-67 0 -112.5 -46.5t-45.5 -117.5v-284h-77v572h-80v62h80v96h77v-96h213v-62h-213v-157q63 103 180 103q93 0 146.5 -57.5t53.5 -150.5v-115q0 -93 -53.5 -150
t-146.5 -57z" />
    <glyph glyph-name="afii10100" unicode="&#x453;" horiz-adv-x="463" 
d="M86 0v517h351v-68h-274v-449h-77zM204 595l95 145l80 -37l-113 -108h-62z" />
    <glyph glyph-name="afii10101" unicode="&#x454;" horiz-adv-x="571" 
d="M318 -12q-111 0 -188 79t-77 189q0 112 74.5 192t186.5 80q126 0 210 -94l-45 -50q-72 77 -160 77q-72 0 -124.5 -49t-60.5 -119h235v-65h-236q8 -73 62 -123t128 -50q82 0 156 81l51 -48q-42 -50 -91.5 -75t-120.5 -25z" />
    <glyph glyph-name="afii10102" unicode="&#x455;" horiz-adv-x="498" 
d="M257 -10q-56 0 -113.5 20.5t-100.5 55.5l39 55q88 -66 179 -66q47 0 77 23t30 61q0 35 -32.5 54t-96.5 37q-39 11 -62 20t-52 25.5t-43 42t-14 60.5q0 66 49.5 107t126.5 41q100 0 186 -57l-35 -58q-77 50 -153 50q-45 0 -72.5 -21.5t-27.5 -55.5q0 -14 8 -26t18 -20
t31.5 -17t34.5 -13t41 -13q37 -11 61 -21t51 -27t40.5 -42.5t13.5 -59.5q0 -72 -52 -113.5t-132 -41.5z" />
    <glyph glyph-name="afii10103" unicode="&#x456;" horiz-adv-x="263" 
d="M93 0v517h77v-517h-77zM88 630v85h88v-85h-88z" />
    <glyph glyph-name="afii10104" unicode="&#x457;" horiz-adv-x="263" 
d="M-1 595v95h90v-95h-90zM175 595v95h90v-95h-90zM93 0v517h77v-517h-77z" />
    <glyph glyph-name="afii10105" unicode="&#x458;" horiz-adv-x="263" 
d="M44 -163q-27 0 -48 5v63q18 -3 38 -3q59 0 59 69v546h77v-547q0 -67 -33 -100t-93 -33zM88 630v85h88v-85h-88z" />
    <glyph glyph-name="afii10106" unicode="&#x459;" horiz-adv-x="900" 
d="M61 -8q-30 0 -62 8l9 66q23 -7 37 -7q22 0 36 5.5t30.5 29t25.5 66.5t15.5 122t6.5 192v43h366v-194h138q90 0 147 -38.5t57 -116.5q0 -77 -53 -122.5t-142 -45.5h-224v449h-216v-12q0 -118 -9 -201t-22.5 -130t-37.5 -73t-46.5 -33.5t-55.5 -7.5zM525 68h140
q59 0 91.5 25t32.5 73q0 44 -33.5 67.5t-93.5 23.5h-137v-189z" />
    <glyph glyph-name="afii10107" unicode="&#x45a;" horiz-adv-x="912" 
d="M86 0v517h77v-198h298v198h77v-198h139q89 0 145.5 -38t56.5 -116q0 -77 -52.5 -121t-140.5 -44h-225v252h-298v-252h-77zM538 68h141q58 0 90.5 24.5t32.5 71.5q0 44 -33 66.5t-93 22.5h-138v-185z" />
    <glyph glyph-name="afii10108" unicode="&#x45b;" horiz-adv-x="616" 
d="M86 0v572h-80v62h80v96h77v-96h213v-62h-213v-155q61 101 177 101q92 0 145 -56.5t53 -150.5v-311h-77v292q0 73 -37.5 114.5t-105.5 41.5q-67 0 -111 -45t-44 -117v-286h-77z" />
    <glyph glyph-name="afii10109" unicode="&#x45c;" horiz-adv-x="567" 
d="M86 0v517h77v-298l283 298h95l-216 -224l222 -293h-91l-184 237l-109 -112v-125h-77zM256 595l95 145l80 -37l-113 -108h-62z" />
    <glyph glyph-name="afii10110" unicode="&#x45e;" horiz-adv-x="591" 
d="M166 -163q-56 0 -110 26l26 61q37 -19 81 -19q35 0 59 21.5t47 75.5l-235 515h85l188 -431l166 431h82l-217 -534q-33 -79 -73 -112.5t-99 -33.5zM307 591q-55 0 -93.5 34t-47.5 88l53 11q20 -70 88 -70t88 70l53 -11q-9 -54 -47.5 -88t-93.5 -34z" />
    <glyph glyph-name="afii10193" unicode="&#x45f;" horiz-adv-x="622" 
d="M276 -129v129h-190v517h77v-449h296v449h77v-517h-184v-129h-76z" />
    <glyph glyph-name="afii10050" unicode="&#x490;" horiz-adv-x="589" 
d="M99 0v700h366v156h68l13 -228h-368v-628h-79z" />
    <glyph glyph-name="afii10098" unicode="&#x491;" horiz-adv-x="463" 
d="M86 0v517h275v129h64l12 -197h-274v-449h-77z" />
    <glyph glyph-name="endash" unicode="&#x2013;" horiz-adv-x="528" 
d="M65 262v77h398v-77h-398z" />
    <glyph glyph-name="emdash" unicode="&#x2014;" horiz-adv-x="898" 
d="M65 262v77h768v-77h-768z" />
    <glyph glyph-name="quoteleft" unicode="&#x2018;" horiz-adv-x="245" 
d="M72 478v90q0 60 26 92t84 45l12 -35q-67 -24 -67 -79v-8h37v-105h-92z" />
    <glyph glyph-name="quoteright" unicode="&#x2019;" horiz-adv-x="245" 
d="M63 473l-12 35q67 25 67 77v10h-36v105h92v-90q0 -60 -26.5 -92t-84.5 -45z" />
    <glyph glyph-name="quotesinglbase" unicode="&#x201a;" horiz-adv-x="245" 
d="M58 -122l-12 35q67 25 67 77v10h-36v105h92v-90q0 -60 -26.5 -92t-84.5 -45z" />
    <glyph glyph-name="quotedblleft" unicode="&#x201c;" horiz-adv-x="445" 
d="M72 478v90q0 60 26 92t84 45l12 -35q-67 -24 -67 -79v-8h37v-105h-92zM272 478v90q0 60 26 92t84 45l12 -35q-67 -24 -67 -79v-8h36v-105h-91z" />
    <glyph glyph-name="quotedblright" unicode="&#x201d;" horiz-adv-x="445" 
d="M63 473l-12 35q67 25 67 77v10h-36v105h92v-90q0 -60 -26.5 -92t-84.5 -45zM263 473l-12 35q67 25 67 77v10h-36v105h91v-90q0 -60 -26 -92t-84 -45z" />
    <glyph glyph-name="quotedblbase" unicode="&#x201e;" horiz-adv-x="445" 
d="M58 -122l-12 35q67 25 67 77v10h-36v105h92v-90q0 -60 -26.5 -92t-84.5 -45zM258 -122l-12 35q67 25 67 77v10h-36v105h91v-90q0 -60 -26 -92t-84 -45z" />
    <glyph glyph-name="dagger" unicode="&#x2020;" horiz-adv-x="410" 
d="M178 238l6 282l-124 -8v55l123 -8l-9 141h62l-9 -141l123 8v-55l-124 8l6 -282h-54z" />
    <glyph glyph-name="daggerdbl" unicode="&#x2021;" horiz-adv-x="430" 
d="M184 0l9 141l-123 -8v55l124 -8l-6 170l6 170l-124 -8v55l123 -8l-9 141h62l-9 -141l123 8v-55l-124 8l6 -170l-6 -170l124 8v-55l-123 8l9 -141h-62z" />
    <glyph glyph-name="bullet" unicode="&#x2022;" horiz-adv-x="478" 
d="M239 221q-54 0 -92.5 38.5t-38.5 93.5q0 54 39 92t92 38t92 -38.5t39 -93.5q0 -54 -38.5 -92t-92.5 -38z" />
    <glyph glyph-name="ellipsis" unicode="&#x2026;" horiz-adv-x="723" 
d="M77 0v103h89v-103h-89zM317 0v103h89v-103h-89zM557 0v103h90v-103h-90z" />
    <glyph glyph-name="perthousand" unicode="&#x2030;" horiz-adv-x="1211" 
d="M124 0l514 700h71l-513 -700h-72zM622 -8q-69 0 -113 52.5t-44 126.5q0 73 45 126t114 53t113 -52.5t44 -126.5t-44.5 -126.5t-114.5 -52.5zM624 48q41 0 66 35t25 88q0 52 -27 87.5t-66 35.5q-40 0 -65.5 -35.5t-25.5 -87.5t27 -87.5t66 -35.5zM999 -8q-69 0 -113 52.5
t-44 126.5q0 73 45 126t114 53t113 -52.5t44 -126.5t-44.5 -126.5t-114.5 -52.5zM1001 48q41 0 66 35t25 88q0 52 -27 87.5t-66 35.5q-40 0 -65.5 -35.5t-25.5 -87.5t27 -87.5t66 -35.5zM210 350q-69 0 -113.5 52.5t-44.5 126.5q0 73 45 126t115 53q69 0 113 -52.5
t44 -126.5q0 -73 -45 -126t-114 -53zM212 406q40 0 65.5 35.5t25.5 87.5t-27 87.5t-66 35.5q-40 0 -65.5 -35.5t-25.5 -87.5t27 -87.5t66 -35.5z" />
    <glyph glyph-name="guilsinglleft" unicode="&#x2039;" horiz-adv-x="328" 
d="M210 41l-162 214v8l162 213l59 -33l-135 -183l135 -185z" />
    <glyph glyph-name="guilsinglright" unicode="&#x203a;" horiz-adv-x="328" 
d="M117 41l-58 33l135 184l-135 184l58 34l162 -213v-8z" />
    <glyph glyph-name="fraction" unicode="&#x2044;" horiz-adv-x="429" 
d="M-68 -98l467 856h76l-467 -856h-76z" />
    <glyph glyph-name="Euro" unicode="&#x20ac;" horiz-adv-x="720" 
d="M430 -12q-105 0 -180.5 68t-102.5 181h-91v63h81q-2 16 -2 50q0 35 4 58h-83v62h94q29 108 103 175t172 67q149 0 241 -137l-60 -43q-40 56 -81.5 82.5t-102.5 26.5q-65 0 -116 -47t-75 -124h257v-62h-270q-4 -21 -4 -58q0 -18 2 -50h272v-63h-259q23 -82 77 -130
t127 -48q56 0 97.5 29t80.5 86l57 -40q-46 -69 -102.5 -107.5t-135.5 -38.5z" />
    <glyph glyph-name="afii61352" unicode="&#x2116;" horiz-adv-x="1037" 
d="M99 0v700h82l370 -557v557h78v-700h-71l-380 570v-570h-79zM715 161v56h251v-56h-251zM841 288q-59 0 -97.5 40.5t-38.5 98.5t39 99t98 41q58 0 96.5 -40.5t38.5 -98.5t-39 -99t-97 -41zM842 339q35 0 56.5 25.5t21.5 63.5q0 37 -22.5 62.5t-56.5 25.5q-35 0 -57 -25.5
t-22 -63.5q0 -37 23 -62.5t57 -25.5z" />
    <glyph glyph-name="published" unicode="&#x2117;" horiz-adv-x="830" 
d="M414 -12q-151 0 -256 106t-105 256q0 149 106 255.5t257 106.5t256 -106t105 -256q0 -149 -106 -255.5t-257 -106.5zM414 19q140 0 235 97.5t95 235.5q0 137 -94.5 233t-233.5 96q-140 0 -235 -97.5t-95 -235.5q0 -137 94.5 -233t233.5 -96zM292 172v371h146
q66 0 105 -32t39 -90q0 -59 -43.5 -91.5t-107.5 -32.5h-83v-125h-56zM348 347h84q43 0 68.5 19.5t25.5 55.5q0 71 -93 71h-85v-146z" />
    <glyph glyph-name="trademark" unicode="&#x2122;" horiz-adv-x="690" 
d="M125 392v266h-99v42h242v-42h-99v-266h-44zM336 392v308h47l110 -169l109 169h46v-308h-43v236l-110 -167h-6l-109 167v-236h-44z" />
    <glyph glyph-name="partialdiff" unicode="&#x2202;" 
d="M0 0v700h500v-700h-500zM81 49h339l-170 255zM49 96l171 254l-171 254v-508zM450 96v508l-171 -254zM250 395l170 255h-339z" />
    <glyph glyph-name="Delta" unicode="&#x2206;" horiz-adv-x="784" 
d="M44 0l310 704h76l310 -704h-696zM160 72h462l-230 539z" />
    <glyph glyph-name="product" unicode="&#x220f;" 
d="M0 0v700h500v-700h-500zM81 49h339l-170 255zM49 96l171 254l-171 254v-508zM450 96v508l-171 -254zM250 395l170 255h-339z" />
    <glyph glyph-name="summation" unicode="&#x2211;" 
d="M0 0v700h500v-700h-500zM81 49h339l-170 255zM49 96l171 254l-171 254v-508zM450 96v508l-171 -254zM250 395l170 255h-339z" />
    <glyph glyph-name="minus" unicode="&#x2212;" horiz-adv-x="640" 
d="M89 316v74h462v-74h-462z" />
    <glyph glyph-name="radical" unicode="&#x221a;" horiz-adv-x="504" 
d="M236 -196l-170 346l-57 -18l-15 56l105 34l152 -313l209 879h66q-28 -112 -238 -966z" />
    <glyph glyph-name="infinity" unicode="&#x221e;" horiz-adv-x="755" 
d="M188 201q-66 0 -106.5 43.5t-40.5 109.5t40 111t105 45q28 0 54.5 -9t54 -30.5t41 -34t42.5 -41.5q5 5 31 30.5t36 33.5t32.5 24t43.5 21.5t45 5.5q66 0 107 -44.5t41 -111.5q0 -68 -39 -110.5t-107 -42.5q-52 0 -97 29t-93 78q-67 -62 -96 -79q-46 -28 -94 -28zM188 267
q63 0 147 86q-1 1 -23.5 21t-31 26.5t-28 20t-35 18.5t-31.5 5q-36 0 -58 -26.5t-22 -63.5q0 -39 22 -63t60 -24zM569 267q38 0 59.5 25t21.5 62q0 40 -22.5 65t-61.5 25q-57 0 -145 -91q29 -28 44.5 -41.5t46 -29t57.5 -15.5z" />
    <glyph glyph-name="integral" unicode="&#x222b;" 
d="M0 0v700h500v-700h-500zM81 49h339l-170 255zM49 96l171 254l-171 254v-508zM450 96v508l-171 -254zM250 395l170 255h-339z" />
    <glyph glyph-name="approxequal" unicode="&#x2248;" horiz-adv-x="640" 
d="M104 185l-50 5q22 143 126 143q45 0 142 -35.5t132 -35.5q33 0 53.5 21t26.5 54q16 -1 50 -5q-7 -59 -39 -100t-87 -41q-45 0 -143 35.5t-132 35.5q-31 0 -52 -22.5t-27 -54.5zM104 364l-50 5q22 143 126 143q44 0 141.5 -35.5t132.5 -35.5q33 0 53.5 21t26.5 54
q16 -1 50 -5q-7 -59 -39 -100t-87 -41q-44 0 -143 35.5t-132 35.5q-31 0 -52 -22.5t-27 -54.5z" />
    <glyph glyph-name="notequal" unicode="&#x2260;" horiz-adv-x="640" 
d="M210 75l-61 32l48 91h-108v74h147l84 159h-231v75h269q9 16 32.5 60t35.5 68l61 -31q-10 -19 -28.5 -53t-23.5 -44h115v-75h-153l-84 -159h237v-74h-276q-42 -82 -64 -123z" />
    <glyph glyph-name="lessequal" unicode="&#x2264;" horiz-adv-x="640" 
d="M72 0v70h496v-70h-496zM568 110q-456 173 -496 188v79q40 15 496 188v-79l-410 -148q323 -118 410 -149v-79z" />
    <glyph glyph-name="greaterequal" unicode="&#x2265;" horiz-adv-x="640" 
d="M72 0v70h496v-70h-496zM73 110v79q186 67 409 149l-409 148v79q330 -126 495 -188v-79q-165 -62 -495 -188z" />
    <glyph glyph-name="lozenge" unicode="&#x25ca;" horiz-adv-x="640" 
d="M284 -35l-173 391l173 391h70l175 -391l-175 -391h-70zM320 41q44 105 134 315q-109 254 -134 314l-133 -314q88 -210 133 -315z" />
    <glyph glyph-name="cyrBreve" unicode="&#xf6d1;" 
d="M250 591q-56 0 -95 34.5t-48 88.5l54 11q20 -70 89 -70t89 70l54 -11q-9 -54 -48 -88.5t-95 -34.5z" />
    <glyph glyph-name="cyrbreve" unicode="&#xf6d4;" 
d="M250 591q-55 0 -93.5 34t-47.5 88l53 11q20 -70 88 -70t88 70l53 -11q-9 -54 -47.5 -88t-93.5 -34z" />
    <glyph glyph-name="apple" unicode="&#xf8ff;" 
d="M0 0v700h500v-700h-500zM81 49h339l-170 255zM49 96l171 254l-171 254v-508zM450 96v508l-171 -254zM250 395l170 255h-339z" />
    <glyph glyph-name="ff" unicode="&#xfb00;" horiz-adv-x="735" 
d="M115 0v449h-71v67h71v45q0 88 45 133q40 40 111 40q49 0 85 -13v-67q-45 13 -75 13q-90 0 -90 -110v-42h164v-66h-163v-449h-77zM483 0v449h-71v67h71v45q0 89 44 133q42 40 111 40q50 0 85 -13v-67q-44 13 -74 13q-90 0 -90 -110v-42h163v-66h-163v-449h-76z" />
    <glyph glyph-name="nbspace" horiz-adv-x="300" 
 />
    </font>
</defs>
</svg>
